<?xml version="1.0" encoding="utf-8"?>
<!-- Generator: Adobe Illustrator 27.5.0, SVG Export Plug-In . SVG Version: 6.00 Build 0)  -->
<svg version="1.1" id="Delivery" xmlns="http://www.w3.org/2000/svg" xmlns:xlink="http://www.w3.org/1999/xlink" x="0px" y="0px"
	 viewBox="0 0 450 380" style="enable-background:new 0 0 450 380;" xml:space="preserve">
<rect id="Background" style="fill-rule:evenodd;clip-rule:evenodd;fill:#F9F7FF;" width="450" height="380"/>
<g id="Delivery_car">
	<path style="opacity:0.5;fill-rule:evenodd;clip-rule:evenodd;fill:#B0B0B0;" d="M180.048,214.39
		c124.64,17.191,200.349,24.442,228.707,27.617c14.51,1.624,13.602-0.115,1.358,5.998c-12.407,6.195-23.039,12.03-30.078,16.016
		c-11.971,6.779-11.334,4.961-25.433,3.024c-143.32-19.691-201.948-37.017-201.948-37.017
		C143.619,228.247,180.048,214.39,180.048,214.39z"/>
	<g>
		<path style="fill-rule:evenodd;clip-rule:evenodd;fill:#302C2A;" d="M255.924,189.567c84.535-8.448,144.976,10.954,129.446,55.636
			c-1.971,5.674-15.503,3.362-19.389,2.811c-4.914-0.697-9.583-1.367-15.759-2.267c-1.433,2.964-3.103,5.05-6.84,7.009
			c-2.014,1.056-10.982,5.278-13.313,5.278c-8.07,0-10.672-7.775-12.203-17.087c-40.076-6.048-88.975-13.797-122.058-20.02
			c-19.102-3.593-30.754-3.328-33.089-7.315C160.236,181.779,193.003,174.307,255.924,189.567z"/>
		<path style="fill-rule:evenodd;clip-rule:evenodd;fill:#302C2A;" d="M212.668,221.316c0.478-4.228-3.52-4.708-7.304-4.432
			c-0.44,5.226-3.193,11.529-8.259,18.91c0,0,3.991-1.978,9.854-4.732C209.471,229.793,211.962,227.55,212.668,221.316z"/>
		<path style="fill-rule:evenodd;clip-rule:evenodd;fill:#4A4441;" d="M192.497,200.859c-7.73,0-13.841,7.98-13.65,17.824
			c0.191,9.844,6.613,17.824,14.343,17.824c7.73,0,13.841-7.98,13.65-17.824C206.649,208.839,200.227,200.859,192.497,200.859z"/>
		<path style="fill-rule:evenodd;clip-rule:evenodd;fill:#96918E;" d="M192.611,206.717c-5.189,0-9.292,5.357-9.164,11.966
			c0.128,6.608,4.44,11.965,9.629,11.965c5.189,0,9.292-5.357,9.164-11.965C202.111,212.074,197.8,206.717,192.611,206.717z"/>
		<path style="fill-rule:evenodd;clip-rule:evenodd;fill:#A8A4A1;" d="M192.646,208.501c-1.571-0.011-2.939,0.546-4.128,1.483
			c-2.27,1.786-3.741,5.01-3.669,8.699c0.109,5.623,3.777,10.181,8.193,10.181c4.415,0,7.81-4.578,7.797-10.181
			c-0.008-3.465-1.362-6.437-3.497-8.276C196.023,209.273,194.388,208.513,192.646,208.501z"/>
		<path style="fill-rule:evenodd;clip-rule:evenodd;fill:#3D3633;" d="M200.51,216.018c-0.484-2.352-1.738-4.147-3.169-5.611
			C191.691,217.804,192.944,219.6,200.51,216.018z"/>
		<path style="fill-rule:evenodd;clip-rule:evenodd;fill:#3D3633;" d="M200.454,222.091c-0.485,2.352-1.925,4.428-3.392,5.374
			C191.412,220.067,192.888,218.509,200.454,222.091z"/>
		<path style="fill-rule:evenodd;clip-rule:evenodd;fill:#3D3633;" d="M185.172,215.555c0.277-2.241,1.846-4.4,3.345-5.571
			C193.407,217.381,191.719,219.137,185.172,215.555z"/>
		<path style="fill-rule:evenodd;clip-rule:evenodd;fill:#3D3633;" d="M185.345,221.721c0.419,2.352,1.709,3.802,3.121,5.344
			C193.356,219.667,191.892,218.139,185.345,221.721z"/>
		<path style="fill-rule:evenodd;clip-rule:evenodd;fill:#857F7B;" d="M192.462,220.747c0.61,0,1.108-0.751,1.108-1.672
			c0-0.921-0.498-1.672-1.108-1.672c-0.61,0-1.108,0.751-1.108,1.672C191.355,219.996,191.852,220.747,192.462,220.747z"/>
		<path style="fill-rule:evenodd;clip-rule:evenodd;fill:#D1D1D1;" d="M176.632,217.057c1.299-29.856,33.561-27.425,34.276,4.132
			l97.406,15.826c-0.315-17.812,10.201-24.882,19.6-24.308c7.046,0.43,16.858,4.32,20.116,15.549
			c1.108,3.818,2.025,8.938,2.031,14.301c24.584,2.481,34.085,4.144,34.085,4.144c26.164-15.788,39.245-23.682,39.245-23.682
			c1.971-18.397-0.398-29.674-7.105-33.831c-27.967-14.209-41.951-21.314-41.951-21.314c-12.748-20.155-17.814-30.135-20.701-36.97
			c-7.125-10.136-9.207-13.148-15.44-12.955c-45.001,1.392-101.448-1.923-146.347,1.144c-15.118,1.032-17.224-0.459-20.082,10.039
			c-8.269,30.38-8.822,50.109-11.076,83.739C168.003,215.713,174.102,216.469,176.632,217.057z"/>
		<path style="fill-rule:evenodd;clip-rule:evenodd;fill:#4D606B;" d="M353.742,131.008c-10.107,6.953-51.909,7.741-51.909,7.741
			c17.511,26.226,21.422,32.354,25.048,40.422c47.433,2.614,50.83-9.582,50.83-9.582c-3.712-6.774-8.612-12.296-11.971-17.742
			C358.268,139.737,353.742,131.008,353.742,131.008z"/>
		<path style="fill-rule:evenodd;clip-rule:evenodd;fill:#C4C4C4;" d="M354.275,226.543c19.283,1.804,28.662,3.195,28.662,3.195
			c-2.341-12.341-2.263-15.895-6.145-22.023c-7.598-11.996-23.733-9.276-51.614-25.999c0,0-11.846-16.243-23.917-39.283
			c-8.867-16.924-12.782-16.682-35.178-17.435c-30.668-1.031-68.787-2.127-82.509-2.32c-9.577-0.135-6.061-0.422-9.394,9.803
			c-6.801,20.862-6.331,49.694-8.517,76.639c5.864,1.804,9.094,2.625,9.094,2.625c3.308-34.692,45.066-22.425,42.756,5.553
			c42.853,6.09,87.198,13.981,87.198,13.981c0.888-17.601,12.438-25.842,24.507-24.957
			C339.054,207.044,349.236,213.827,354.275,226.543z"/>
		<path style="fill-rule:evenodd;clip-rule:evenodd;fill:#E0E0E0;" d="M186.001,178.576c0.992-2.302,1.488-3.453,1.488-3.453
			s-8.21-1.088-19.738-2.567c0,0-0.906,1.179-1.228,3.282C178.692,177.603,186.001,178.576,186.001,178.576z"/>
		<path style="fill-rule:evenodd;clip-rule:evenodd;fill:#4D606B;" d="M271.69,137.728c17.082-1.246,21.401,0.554,23.131,3.558
			c15.224,25.486,22.625,36.115,22.625,36.115c-5.71-0.195-41.088-3.321-45.884-5.413
			C269.757,150.561,271.69,137.728,271.69,137.728z"/>
		<path style="fill-rule:evenodd;clip-rule:evenodd;fill:#A1A1A1;" d="M375.512,175.71c-1.93,1.967-9.697,4.673-18.227,6.132
			c5.119,3.116,4.655,2.886,4.655,2.886c8.901-1.756,15.058-3.839,16.871-6.481C376.612,176.555,375.512,175.71,375.512,175.71z"/>
		<path style="fill-rule:evenodd;clip-rule:evenodd;fill:#544E4E;" d="M225.545,218.254c26.845,3.855,40.267,5.783,40.267,5.783
			c-0.035-9-0.794-18.822-0.771-27.337c0.006-2.41,0.553-2.678,0.578-5.029c0.22-20.329,1.576-43.182,2.013-60.789
			c-24.923-1.184-39.752-1.354-39.752-1.354C224.31,154.308,223.65,185.952,225.545,218.254z"/>
		<path style="fill-rule:evenodd;clip-rule:evenodd;fill:#B5B5B5;" d="M265.813,224.037c-26.845-3.855-40.267-5.783-40.267-5.783
			c3.587-1.186,5.38-1.778,5.38-1.778c-0.338-6.992-0.507-10.488-0.507-10.488c23.576,2.932,35.364,4.398,35.364,4.398
			C265.803,219.487,265.813,224.037,265.813,224.037z"/>
		<path style="fill-rule:evenodd;clip-rule:evenodd;fill:#3B3434;" d="M295.582,143.694c1.703,0.22,2.563,1.401,2.579,3.543
			c0,0-0.025,9.242,0.263,27.519c-0.441-0.051-1.012,0.233-2.368-0.104C296.056,174.651,295.898,164.332,295.582,143.694z"/>
		<path style="fill-rule:evenodd;clip-rule:evenodd;fill:#473F3F;" d="M273.283,140.003c-0.038,5.219-0.06,10.362-0.067,15.426
			c-0.007,5.09,0.001,10.107,0.024,15.048l36.879,4.161l1.287-1.759l-18.861-30.668l-0.033-0.059
			c-0.432-0.773-1.026-1.336-1.779-1.688c-0.833-0.389-1.896-0.555-3.187-0.497L273.283,140.003L273.283,140.003z M269.845,155.43
			c0.008-5.616,0.035-11.321,0.08-17.113l0.013-1.674l17.462-0.046c1.835-0.083,3.422,0.189,4.76,0.814
			c1.397,0.653,2.486,1.663,3.266,3.03l20.047,32.596l3.813,5.987l-7.601-0.81l-41.801-4.716l-0.008-1.503
			C269.848,166.566,269.837,161.044,269.845,155.43z"/>
		<path style="fill-rule:evenodd;clip-rule:evenodd;fill:#3D3636;" d="M311.41,163.889c-0.074,6.07,0.096,11.696,0.194,17.477
			c-1.482,0.378-2.956,0.704-4.421,0.979c-1.985,0.373-2.028,0.55-3.93-0.105c-0.92-0.318-1.381-0.476-1.381-0.476
			c0.265-13.174,0.397-19.761,0.397-19.761c4.833-0.861,6.881-1.225,6.881-1.225C311.74,161.64,311.447,160.922,311.41,163.889z"/>
		<path style="fill-rule:evenodd;clip-rule:evenodd;fill:#473F3F;" d="M303.161,162.633c0.169,0.062,0.339,0.124,0.507,0.186
			c0.169,0.062,0.339,0.124,0.508,0.186c0.169,0.062,0.338,0.124,0.507,0.186c0.708,0.26,0.742,0.137,1.484-0.016
			c0.326-0.068,0.651-0.136,0.977-0.203c0.325-0.067,0.651-0.135,0.976-0.203c0.325-0.068,0.651-0.135,0.977-0.203
			c0.022,0.104,0.044,0.208,0.065,0.312c-0.319,0.066-0.638,0.133-0.956,0.199c-0.319,0.066-0.637,0.136-0.956,0.199
			c-1.926,0.381-1.922,2.408-1.934,4.816l-0.021,4.419l-0.042,8.837l-0.318-0.001c0.007-1.474,0.014-2.949,0.021-4.423
			c0.007-1.474,0.014-2.949,0.021-4.423c0.007-1.474,0.014-2.948,0.021-4.423c0.008-1.662,0.191-4.443-0.963-4.784
			c-0.167-0.049-0.328-0.12-0.492-0.181c-0.164-0.06-0.328-0.12-0.492-0.181C303.087,162.833,303.124,162.733,303.161,162.633z"/>
		<path style="fill-rule:evenodd;clip-rule:evenodd;fill:#363030;" d="M374.548,169.357c-15.107-24.441-22.322-37.043-22.322-37.043
			c-1.255,0.561-1.036,0.776-2.065,1.111c15.591,25.217,21.688,38.442,21.688,38.442
			C372.932,171.008,373.832,170.171,374.548,169.357z"/>
		<path style="fill-rule:evenodd;clip-rule:evenodd;fill:#D6D6D6;" d="M362.92,209.687c-22.971-3.427-54.564-8.067-97.878-12.987
			c0.578-5.029,0.578-5.029,0.578-5.029c50.36,6.702,79.921,11.204,89.307,12.51C356.676,204.423,360.923,205.275,362.92,209.687z"
			/>
		<path style="fill-rule:evenodd;clip-rule:evenodd;fill:#808080;" d="M273.219,192.793c3.383,0.357,5.075,0.535,5.075,0.535
			s0.113-4.687,0.338-14.061c0,0-1.804-0.172-5.413-0.515C273.219,188.113,273.219,192.793,273.219,192.793z"/>
		<path style="fill-rule:evenodd;clip-rule:evenodd;fill:#5C5C5C;" d="M275.006,192.982c2.575,0.406,3.369,0.342,3.369,0.342
			s0.086-4.686,0.257-14.056c0,0-0.88,0.069-3.627-0.326C275.006,188.302,275.006,192.982,275.006,192.982z"/>
		<path style="fill-rule:evenodd;clip-rule:evenodd;fill:#607480;" d="M350.161,133.426c-5.766,1.975-11.529,3.343-17.288,4.104
			c-1.854,18.452-1.428,32.16-1.428,32.16c23.218,0.402,39.563,0.434,39.563,0.434C362.763,154.496,355.814,142.263,350.161,133.426
			z"/>
		<path style="fill-rule:evenodd;clip-rule:evenodd;fill:#43545E;" d="M333.001,136.864c-0.038,5.223-0.06,10.367-0.067,15.432
			c-0.007,5.091,0.001,10.106,0.023,15.046l34.471,0.804l1.287-1.875l-16.452-28.932l-0.033-0.057
			c-0.432-0.734-1.026-1.244-1.779-1.528c-0.833-0.314-1.896-0.385-3.187-0.211L333.001,136.864L333.001,136.864z M329.563,152.599
			c0.008-5.617,0.035-11.324,0.08-17.12l17.475-3.291c1.835-0.247,3.623-0.727,4.961-0.222c1.397,0.527,2.285,2.048,3.064,3.345
			l19.928,32.938l-1.126,5.182l-44.342-2.767l-0.008-1.503C329.565,163.735,329.555,158.214,329.563,152.599z"/>
		<path style="fill-rule:evenodd;clip-rule:evenodd;fill:#473F3F;" d="M360.736,179.159c-8.557,1.617-17.005,2.207-30.993,1.5
			c-2.914-0.14-3.29,0.315-4.716-2.164c-2.167-3.791-4.558-7.688-8.731-14.398c-4.199-6.751-7.425-11.877-13.625-21.538
			c-1.481-2.308-1.819-5.1,0.919-5.277c15.995-1.038,31.423-2.082,46.636-7.147c2.805-0.934,2.314-0.976,3.805,1.424
			c7.943,12.789,15.733,25.243,23.679,38.03C375.413,175.869,366.54,178.062,360.736,179.159L360.736,179.159z M360.239,176.505
			c7.577-1.432,11.349-3.889,14.309-7.148l-22.66-36.662c-11.014,5.09-35.147,6.825-46.247,7.588
			c6.614,10.32,17.595,25.926,23.657,36.091c1.281,2.148,2.208,1.656,4.853,1.755C346.02,178.574,352.607,177.948,360.239,176.505z"
			/>
		<path style="opacity:0.59;fill-rule:evenodd;clip-rule:evenodd;fill:#CCCCCC;" d="M338.977,137.463
			c4.544,38.141-0.671,46.684-15.647,25.627c5.051,8.908,7.758,13.137,8.119,12.687c5.745,0.618,10.199,0.843,13.363,0.677
			c-6.28-29.406-1.792-39.26,13.464-29.563c-3.581-6.049-5.371-9.074-5.371-9.074c-1.389-1.991-3.27-2.748-5.642-2.273
			C341.74,136.823,338.977,137.463,338.977,137.463z"/>
		<path style="opacity:0.59;fill-rule:evenodd;clip-rule:evenodd;fill:#CCCCCC;" d="M324.516,141.183
			c-5.671,3.886-7.898,7.89-6.682,12.01c-4.849-7.217-7.274-10.826-7.274-10.826C316.389,142.301,321.041,141.907,324.516,141.183z"
			/>
		<path style="opacity:0.59;fill-rule:evenodd;clip-rule:evenodd;fill:#CCCCCC;" d="M372.557,168.756
			c-1.733,2.548-3.96,4.211-6.682,4.99c1.995-4.855,2.417-9.056,1.269-12.603C370.752,166.219,372.557,168.756,372.557,168.756z"/>
		<path style="opacity:0.59;fill-rule:evenodd;clip-rule:evenodd;fill:#CCCCCC;" d="M287.219,142.367
			c-6.462,26.958-10.635,33.132-12.518,18.523c0,0-0.197,3.806-0.254,8.881c3.834,0.119,6.118,0.514,6.174,0.507
			c5.954-19.953,9.732-26.804,11.672-17.339c1.072-3.947,1.607-5.921,1.607-5.921C291.788,141.851,289.56,140.3,287.219,142.367z"/>
		<path style="fill-rule:evenodd;clip-rule:evenodd;fill:#544E4E;" d="M377.864,248.037c-21.674-2.137-29.679-3.64-29.679-3.64
			c0.667-11.957-1.41-15.267-0.156-16.14c22.257,3.083,34.896,3.339,34.896,3.339c27.401-11.161,41.115-18.094,41.115-18.094
			c0.014-1.469,0.021-2.204,0.021-2.204c3.763,1.035,2.76,3.775,2.378,15.816c-17.001,9.784-28.036,14.414-34.92,18.35
			C384.284,249.601,383.859,248.628,377.864,248.037z"/>
		<path style="fill-rule:evenodd;clip-rule:evenodd;fill:#C4C4C4;" d="M385.296,205.056c3.271,13.589,1.905,21.72,1.905,21.72
			s2.143,0.042,5.413,0.042c0.286-5.405-0.954-13.51-2.707-20.679C387.701,205.232,387.684,205.249,385.296,205.056z"/>
		<path style="fill-rule:evenodd;clip-rule:evenodd;fill:#FFFFFF;" d="M374.087,207.661c3.541,5.245,5.245,13.859,5.82,21.357
			c4.039,0.96,3.029,0.72,3.029,0.72c4.418-1.862,7.643-2.962,7.643-2.962c0.537-8.687-1.758-17.495-5.284-21.72
			c-4.584,1.578-8.993,1.923-8.993,1.923C373.735,207.008,374.087,207.661,374.087,207.661z"/>
		<path style="fill-rule:evenodd;clip-rule:evenodd;fill:#E67A4C;" d="M378.238,229.642c3.453,0.876,3.006,0.709,4.7,0.689
			c1.032-0.012,0.895-0.782,0.895-0.782c-1.409-11.533-2.308-17.393-6.187-22.721c-3.268,0.043-4.643-0.061-4.643-0.061
			C376.771,213.097,377.717,221.2,378.238,229.642z"/>
		<path style="fill-rule:evenodd;clip-rule:evenodd;fill:#C4C4C4;" d="M395.491,223.9c13.133-6.106,21.864-9.6,21.864-9.6
			c-0.467-5.898-0.82-12.734-1.819-16.535c0,0-11.714,3.693-22.752,7.697C393.812,209.257,394.714,215.403,395.491,223.9z"/>
		<path style="fill-rule:evenodd;clip-rule:evenodd;fill:#FAFAFA;" d="M420.373,193.424c1.825,3.546,3.579,10.469,3.689,17.874
			c-3.259,1.353-5.649,2.537-5.649,2.537c-0.238-7.021-0.446-13.33-1.551-16.894c-0.113-0.363-2.108-0.716-2.229-1.044
			C417.555,194.783,420.373,193.424,420.373,193.424z"/>
		<path style="fill-rule:evenodd;clip-rule:evenodd;fill:#E67A4C;" d="M423.279,211.623c0.522-0.217,0.782-0.325,0.782-0.325
			c0.129-6.792-0.993-12.566-3.368-17.323C422.39,201.708,423.252,207.591,423.279,211.623z"/>
		<path style="fill-rule:evenodd;clip-rule:evenodd;fill:#E8E8E8;" d="M346.693,187.191c18.656,0.336,32.302-3.104,37.553-11.333
			c0,0,9.586,5.3,28.757,15.901c0,0-0.395,1.297-1.184,3.891c0,0-6.428,2.368-19.284,7.105c0,0-3.439-0.169-10.319-0.507
			C376.183,198.25,363.215,192.893,346.693,187.191z"/>
		<path style="fill-rule:evenodd;clip-rule:evenodd;fill:#E8E8E8;" d="M300.886,134.863c22.894-1.524,39.074-3.045,47.756-6.201
			c-2.988-6.174-5.92-8.035-9.134-9.304c-7.969,1.525-24.321,1.666-48.718,4.144C295.912,127.49,299.016,130.732,300.886,134.863z"
			/>
		<path style="fill-rule:evenodd;clip-rule:evenodd;fill:#A1A1A1;" d="M394.728,206.589c13.166-4.536,19.749-6.804,19.749-6.804
			c-0.293,1.497-0.519,2.181-0.677,2.05c-12.461,4.318-18.692,6.477-18.692,6.477C394.855,207.164,394.728,206.589,394.728,206.589z
			"/>
		<path style="fill-rule:evenodd;clip-rule:evenodd;fill:#A1A1A1;" d="M395.489,210.842c13.166-4.962,19.749-7.443,19.749-7.443
			c-0.293,1.507-0.519,2.197-0.677,2.072c-12.461,4.721-18.692,7.081-18.692,7.081C395.616,211.413,395.489,210.842,395.489,210.842
			z"/>
		<path style="fill-rule:evenodd;clip-rule:evenodd;fill:#A1A1A1;" d="M395.997,214.974c13.166-5.076,19.749-7.615,19.749-7.615
			c-0.293,1.509-0.519,2.202-0.677,2.078c-12.461,4.829-18.692,7.244-18.692,7.244C396.124,215.543,395.997,214.974,395.997,214.974
			z"/>
		<path style="fill-rule:evenodd;clip-rule:evenodd;fill:#A1A1A1;" d="M396.492,219.202c13.166-5.381,19.749-8.072,19.749-8.072
			c-0.293,1.516-0.518,2.214-0.677,2.093c-12.461,5.118-18.692,7.677-18.692,7.677C396.619,219.768,396.492,219.202,396.492,219.202
			z"/>
		<path style="fill-rule:evenodd;clip-rule:evenodd;fill:#474040;" d="M266.876,152.158c-18.383-0.747-31.537-0.707-31.537-0.707
			c-3.692,11.148-7.246,26.489-10.66,46.023c-0.607-24.874,0.403-48.519,3.202-67.946c0,0,14.83,0.17,39.752,1.354
			C267.472,137.389,267.185,144.611,266.876,152.158z"/>
		<path style="fill-rule:evenodd;clip-rule:evenodd;fill:#C48D35;" d="M240.63,191.643c5.658-0.33,11.543-1.471,16.372-1.977
			c-0.579-5.58,0.643-9.569-0.638-18.547c-2.908-0.971-5.509-2.178-5.509-2.178c-3.777-0.123-7.945,0.592-10.895,0.622
			c0.146,4.811,0.174,8.735,0.351,12.804c0.047,1.085,0.431,2.376,0.453,3.436C240.804,187.703,240.662,189.937,240.63,191.643z"/>
		<path style="fill-rule:evenodd;clip-rule:evenodd;fill:#CC963F;" d="M236.018,172.623c5.658-0.33,11.542-1.471,16.372-1.977
			c-0.579-5.58-0.706-10.809-0.51-17.598c-2.908-0.971-4.707-2.087-4.707-2.087c-3.777-0.123-8.884,0.462-11.835,0.491
			c0.146,4.811,0.183,7.826,0.36,11.895c0.047,1.085,0.431,2.376,0.453,3.436C236.192,168.683,236.05,170.917,236.018,172.623z"/>
		<path style="fill-rule:evenodd;clip-rule:evenodd;fill:#D69F46;" d="M187.845,169.528l-0.01,0.004l0.003,0.005L187.845,169.528
			L187.845,169.528z M224.699,198.316c7.636-0.51,15.137-2.553,21.655-3.336c-0.781-8.631,0.868-14.802-0.861-28.688
			c-3.924-1.501-7.436-3.369-7.436-3.369c-5.097-0.191-10.723,0.916-14.705,0.961c0.197,7.441,0.235,13.511,0.474,19.805
			c0.064,1.678,0.582,3.675,0.611,5.314C224.492,191.944,224.626,195.13,224.699,198.316z"/>
		<path style="fill-rule:evenodd;clip-rule:evenodd;fill:#DEAA56;" d="M244.59,194.056c-0.101-4.008,0.126-25.815-2.071-26.205
			c-1.654-0.469-3.457-0.035-1.13-1.419c-7.274,0.559-12.872,1.001-17.833,1.373c0.252,10.782,1.873,19.847,1.762,28.195
			C236.519,195.102,241.4,194.196,244.59,194.056z"/>
		<path style="fill-rule:evenodd;clip-rule:evenodd;fill:#D6A453;" d="M223.465,167.344c4.677-0.312,9.993-1.258,13.986-1.738
			c-0.479-5.287-0.395-11.527-1.014-18.822c-2.404-0.92-4.418-1.599-4.418-1.599c-3.644-0.032-6.944,0.06-9.384,0.088
			C222.834,152.736,223.588,159.797,223.465,167.344z"/>
		<path style="fill-rule:evenodd;clip-rule:evenodd;fill:#DEAA56;" d="M235.884,163.79c-0.062-2.455,0.077-15.812-1.269-16.051
			c-1.013-0.287-2.118-0.021-0.692-0.869c-4.455,0.342-8.15,0.574-11.189,0.801c0.154,6.605,0.525,13.545,0.664,18.032
			C230.259,165.154,233.93,163.876,235.884,163.79z"/>
		<path style="fill-rule:evenodd;clip-rule:evenodd;fill:#D9D9D9;" d="M186.315,126.172c-3.027,18.543-3.679,35.811-4.249,56.185
			c-0.029,1.04-1.327,3.306-1.35,4.351c-0.194,8.9-0.939,18.435-0.667,27.682c0,0,15.95,2.773,42.664,6.629
			c0.144-23.366,1.807-54.418,4.989-93.155C201.231,126.961,186.315,126.172,186.315,126.172z"/>
		<path style="fill-rule:evenodd;clip-rule:evenodd;fill:#808080;" d="M185.517,182.452c3.371,0.357,5.057,0.535,5.057,0.535
			s0.272-4.687,0.817-14.061c0,0-1.799-0.172-5.396-0.515C185.676,177.772,185.517,182.452,185.517,182.452z"/>
		<path style="fill-rule:evenodd;clip-rule:evenodd;fill:#5C5C5C;" d="M187.297,182.64c2.561,0.406,3.358,0.342,3.358,0.342
			s0.245-4.685,0.736-14.056c0,0-0.883,0.07-3.616-0.326C187.456,177.96,187.297,182.64,187.297,182.64z"/>
		<path style="fill-rule:evenodd;clip-rule:evenodd;fill:#C9C9C9;" d="M224.596,134.011c-23.839-2.03-36.223-2.044-36.223-2.044
			c-1.125,5.615-2.27,17.132-3.562,32.831c0,0,12.361,1.297,37.083,3.891C221.894,168.688,223.062,155.889,224.596,134.011z"/>
		<path style="fill-rule:evenodd;clip-rule:evenodd;fill:#E8E8E8;" d="M182.066,182.357c-0.758,2.138-1.35,4.351-1.35,4.351
			c8.22,1.32,21.255,3.355,42.559,5.706c0.278-3.189,0.417-4.783,0.417-4.783C195.225,184.024,182.066,182.357,182.066,182.357z"/>
		<path style="fill-rule:evenodd;clip-rule:evenodd;fill:#3D3A3A;" d="M385.37,245.202c8.12-3.722,12.378-6.919,12.378-6.919
			c-0.057-4.342-0.326-5.979-0.326-5.979c-9.091,3.049-13.221,5.318-12.475,5.202C385.229,242.637,385.37,245.202,385.37,245.202z"
			/>
		<path style="fill-rule:evenodd;clip-rule:evenodd;fill:#3D3A3A;" d="M426.807,218.549c-0.198,4.406-0.289,6.4-0.289,6.4
			s-2.332,1.337-6.978,3.591c0,0-0.085-1.804-0.254-5.413C419.286,223.127,421.793,221.601,426.807,218.549z"/>
		<path style="fill-rule:evenodd;clip-rule:evenodd;fill:#4A4441;" d="M327.43,217.569c-9.2,0-16.474,9.115-16.246,20.359
			c0.228,11.244,7.871,20.359,17.071,20.359c9.2,0,16.474-9.115,16.247-20.359C344.274,226.685,336.631,217.569,327.43,217.569z"/>
		<path style="fill-rule:evenodd;clip-rule:evenodd;fill:#96918E;" d="M327.566,224.261c-6.177,0-11.06,6.119-10.907,13.668
			c0.153,7.549,5.284,13.668,11.461,13.668c6.176,0,11.06-6.119,10.907-13.668C338.874,230.38,333.743,224.261,327.566,224.261z"/>
		<path style="fill-rule:evenodd;clip-rule:evenodd;fill:#A8A4A1;" d="M327.607,226.299c-1.87-0.012-3.498,0.624-4.914,1.694
			c-2.702,2.041-4.452,5.722-4.367,9.936c0.13,6.423,4.496,11.63,9.751,11.63c5.256,0,9.296-5.23,9.281-11.63
			c-0.009-3.958-1.621-7.352-4.163-9.453C331.628,227.18,329.681,226.313,327.607,226.299z"/>
		<path style="fill-rule:evenodd;clip-rule:evenodd;fill:#3D3633;" d="M336.968,234.885c-0.577-2.687-2.069-4.737-3.772-6.409
			C326.471,236.925,327.963,238.976,336.968,234.885z"/>
		<path style="fill-rule:evenodd;clip-rule:evenodd;fill:#3D3633;" d="M336.901,241.822c-0.577,2.687-2.291,5.058-4.037,6.138
			C326.139,239.51,327.896,237.73,336.901,241.822z"/>
		<path style="fill-rule:evenodd;clip-rule:evenodd;fill:#3D3633;" d="M318.712,234.357c0.33-2.559,2.198-5.026,3.982-6.364
			C328.513,236.442,326.504,238.448,318.712,234.357z"/>
		<path style="fill-rule:evenodd;clip-rule:evenodd;fill:#3D3633;" d="M318.918,241.399c0.499,2.686,2.034,4.343,3.715,6.104
			C328.453,239.053,326.71,237.308,318.918,241.399z"/>
		<path style="fill-rule:evenodd;clip-rule:evenodd;fill:#857F7B;" d="M327.389,240.287c0.726,0,1.318-0.858,1.318-1.91
			s-0.592-1.91-1.318-1.91c-0.726,0-1.318,0.858-1.318,1.91S326.663,240.287,327.389,240.287z"/>
		<path style="fill-rule:evenodd;clip-rule:evenodd;fill:#9C1D1D;" d="M164.286,166.842c-0.804,7.677-1.472,15.135-2.002,22.375
			c2.197,1.166,3.162,1.25,2.895,0.253c0.725-11.028,1.268-18.694,1.555-22.074C165.646,167.39,164.96,167.299,164.286,166.842z"/>
		<path style="fill-rule:evenodd;clip-rule:evenodd;fill:#FAF1EB;" d="M165.668,182.082c-0.213,3.22-0.32,4.829-0.32,4.829
			c-1.879-0.619-2.819-0.928-2.819-0.928c0.252-3.054,0.378-4.581,0.378-4.581C164.747,181.855,165.668,182.082,165.668,182.082z"/>
		<path style="fill-rule:evenodd;clip-rule:evenodd;fill:#D6712D;" d="M163.865,170.962c-0.219,2.255-0.554,5.807-0.554,5.807
			c0.645,0.112,1.536,0.292,2.637,0.624c0,0,0.291-3.521,0.456-5.797C165.422,171.492,164.576,171.281,163.865,170.962z"/>
		<path style="fill-rule:evenodd;clip-rule:evenodd;fill:#544E4E;" d="M161.45,213.886c10.629,2.791,15.182,3.171,15.182,3.171
			c1.258-6.587,2.231-10.737,2.231-10.737c-15.253-2.808-17.407-5.197-17.407-5.197c-1.741-0.081-1.401-0.201-1.329,4.067
			C159.084,209.746,159.325,212.434,161.45,213.886z"/>
		<path style="fill-rule:evenodd;clip-rule:evenodd;fill:#A1A1A1;" d="M322.626,181.647c0.008-0.298-0.227-0.546-0.524-0.554
			c-0.298-0.008-0.546,0.227-0.554,0.524l-0.419,13.829c-0.121,4.012-2.751,5.426-5.982,7.163c-1.019,0.548-2.096,1.126-3.181,1.825
			c-3.235,2.082-5.808,5.319-7.718,9.711c-1.889,4.344-3.13,9.826-3.724,16.446c-0.026,0.297,0.194,0.558,0.491,0.584
			c0.296,0.026,0.558-0.194,0.583-0.491c0.583-6.5,1.796-11.869,3.64-16.108c1.822-4.191,4.26-7.269,7.312-9.232
			c1.052-0.677,2.109-1.245,3.109-1.783c3.533-1.899,6.408-3.445,6.548-8.085L322.626,181.647z"/>
		<path style="fill-rule:evenodd;clip-rule:evenodd;fill:#E6E6E6;" d="M390.043,221.745c-4.382-2.229-6.872-8.116-8.479-9.004
			C384.251,212.536,388.349,219.311,390.043,221.745z"/>
		<path style="fill-rule:evenodd;clip-rule:evenodd;fill:#E6E6E6;" d="M389.064,216.584c-2.812-1.778-7.432-7.757-7.432-7.757
			C383.357,208.908,387.977,214.888,389.064,216.584z"/>
		<path style="fill-rule:evenodd;clip-rule:evenodd;fill:#E6E6E6;" d="M390.031,225.342c-2.812-1.431-7.667-7.932-7.667-7.932
			C384.089,217.279,388.944,223.779,390.031,225.342z"/>
		<path style="fill-rule:evenodd;clip-rule:evenodd;fill:#E6E6E6;" d="M418.766,208.594c1.823-1.84,2.064-6.861,2.721-7.597
			C420.098,200.772,419.2,206.529,418.766,208.594z"/>
		<path style="fill-rule:evenodd;clip-rule:evenodd;fill:#E6E6E6;" d="M418.371,204.17c1.11-1.48,2.408-6.542,2.408-6.542
			C419.924,197.667,418.626,202.73,418.371,204.17z"/>
		<path style="fill-rule:evenodd;clip-rule:evenodd;fill:#E6E6E6;" d="M419.39,211.689c1.17-1.181,2.496-6.689,2.496-6.689
			C420.995,204.856,419.669,210.363,419.39,211.689z"/>
		<path style="fill-rule:evenodd;clip-rule:evenodd;fill:#FFB291;" d="M377.646,206.827c-0.963,0.007-1.444,0.01-1.444,0.01
			c3.532,5.319,5.731,12.711,6.598,22.178C383.165,219.528,381.447,212.132,377.646,206.827z"/>
	</g>
</g>
<g id="Delivery_man">
	<g>
		<path style="fill-rule:evenodd;clip-rule:evenodd;fill:#F78A5B;" d="M98.282,83.144c-1.479,0.093-2.17,0.688-5.099-0.44
			c-2.665-2.692-3.791-7.663-3.378-11.782c-0.163-0.777,0.633-1.188,1.895-1.73c2.566,0.07,3.21,3.057,5.39,8.3
			C98.225,79.005,98.642,80.971,98.282,83.144z"/>
		<path style="fill-rule:evenodd;clip-rule:evenodd;fill:#E8734C;" d="M94.038,79.821c2.48,2.487,2.688,2.033,2.111-1.485
			c-1.233-3.127-3.019-5.612-5.355-7.456c-1.3,4.849,0.554,8.716,2.107,10.345c-0.842-2.108-1.688-5.609-0.938-8.137
			c0.578,0.345,0.558,1.399,1.146,1.693c0.825,0.414,1.397,1.024,1.716,1.953C93.645,77.288,93.879,78.276,94.038,79.821z"/>
		<path style="fill-rule:evenodd;clip-rule:evenodd;fill:#F78A5B;" d="M129.192,85.006c1.481-0.031,2.22,0.504,5.044-0.864
			c2.43-2.906,3.137-7.954,2.381-12.023c0.098-0.787-0.73-1.131-2.033-1.566c-2.551,0.285-3.343,2.133-5.078,7.54
			C128.503,79.695,128.651,82.871,129.192,85.006z"/>
		<path style="fill-rule:evenodd;clip-rule:evenodd;fill:#E8734C;" d="M133.144,81.34c-2.263,2.685-2.509,2.251-2.227-1.303
			c0.967-3.219,2.539-5.845,4.713-7.878c1.701,4.724,0.177,8.731-1.234,10.484c0.663-2.171,1.213-5.73,0.254-8.187
			c-0.547,0.393-0.439,1.44-1,1.783c-0.788,0.482-1.307,1.137-1.547,2.089C133.323,78.783,133.173,79.787,133.144,81.34z"/>
		<path style="fill-rule:evenodd;clip-rule:evenodd;fill:#FFAC7F;" d="M130.661,69.052c-0.058,1.743-0.396,2.664-0.472,4.468
			c-0.075,1.799-0.452,3.021-0.715,4.836c-1.305,9.001-5.107,18.048-15.961,18.236c-10.704,0.185-12.909-3.809-15.292-13.695
			c-1.167-4.841-1.918-10.083-2.346-12.883c1.678-1.231,1.381-4.676,2.134-5.989c1.66-2.891,3.345-3.691,6.599-6.041
			c8.026-0.618,13.299-0.672,15.819-0.165c1.69,1.318,4.543,2.304,5.463,4.424C127.046,64.904,129.694,67.715,130.661,69.052z"/>
		<path style="fill-rule:evenodd;clip-rule:evenodd;fill:#FF9466;" d="M98.255,68.167c5.087-4.566,9.017-5.811,11.791-3.734
			c1.791,1.305,2.038,4.545,0.742,9.723c-1.239-6.96-4.851-7.468-10.834-1.524C97.41,73.024,96.844,71.536,98.255,68.167z"/>
		<path style="fill-rule:evenodd;clip-rule:evenodd;fill:#571A0B;" d="M96.452,70.691c0.304,3.859,0.747,7.387,0.747,7.387
			c-0.467-1.598-2.496-1.807-2.53-3.255c-0.077-3.32-0.672-3.241-1.643-5.586c-0.53-1.279,0.537-3.985,0.493-4.966
			c-0.161-3.59,0.017-4.626,0.378-5.857c15.867-5.362,28.28-5.362,37.241,0c-0.814,3.828,0.696,4.564,1.107,6.427
			c0.18,0.816,0.618,2.318,3.206,1.395c-0.559,0.552-1.178,0.804-1.856,0.755c0.187,0.937,0.308,1.899,0.05,2.522
			c-0.071,0.171-0.14,0.329-0.206,0.477c-0.848,1.875-1.365,2.031-1.436,5.109c-0.034,1.448-2.063,1.657-2.53,3.255
			c0,0,0.023-0.188,0.064-0.526c0.133-1.122,0.45-3.894,0.684-6.862c-0.752-0.595-0.879-1.71-1.16-3.064
			c-1.517-1.628-3.311-2.86-4.416-6.342c-1.109-2.804-9.21-3.69-20.195-2.723c-2.385,1.837-5.275,3.569-5.95,6.063
			C97.247,67.398,97.671,69.727,96.452,70.691z"/>
		<path style="fill-rule:evenodd;clip-rule:evenodd;fill:#1C7A94;" d="M124.702,44.566c4.513,1.832,11.588,5.562,7.781,20.402
			c-9.568-5.123-22.538-5.354-38.911-0.695c-2.871-10.066,1.769-17.687,5.783-19.271C112.795,40.878,113.525,40.553,124.702,44.566z
			"/>
		<path style="fill-rule:evenodd;clip-rule:evenodd;fill:#298FAB;" d="M114.017,58.166c10.744,2.861,16.116,4.292,16.116,4.292
			c0.243-7.509-0.386-12.838-1.889-15.986c-6.391-2.48-11.182-3.404-14.374-2.772C114.782,54.03,114.83,58.852,114.017,58.166
			L114.017,58.166z M112.872,58.167c-10.744,2.861-16.116,4.292-16.116,4.292c-0.243-7.509,0.386-12.838,1.889-15.985
			c6.391-2.48,11.182-3.405,14.374-2.772C112.107,54.03,112.059,58.852,112.872,58.167z"/>
		<path style="fill-rule:evenodd;clip-rule:evenodd;fill:#F08C52;" d="M129.615,61.193c0,0.137-0.211,0.139-0.211-0.002l0.003-0.421
			c0-0.137,0.211-0.139,0.211,0.001L129.615,61.193L129.615,61.193z M121.161,45.196l-0.406-0.112
			c-0.134-0.037-0.078-0.24,0.055-0.203l0.408,0.112C121.35,45.029,121.297,45.233,121.161,45.196L121.161,45.196z M115.76,56.281
			c0,0.149-0.21,0.137-0.21,0.008c-0.005-0.14-0.01-0.281-0.017-0.421c0-0.15,0.211-0.137,0.211-0.009
			C115.75,56,115.755,56.14,115.76,56.281L115.76,56.281z M115.717,55.227c0,0.14-0.198,0.149-0.211,0.009l-0.02-0.421
			c0-0.141,0.198-0.149,0.211-0.01L115.717,55.227L115.717,55.227z M115.666,54.173c0.012,0.128-0.197,0.159-0.211,0.011
			l-0.022-0.421c-0.012-0.129,0.197-0.159,0.211-0.011L115.666,54.173L115.666,54.173z M115.608,53.119
			c0.012,0.13-0.197,0.159-0.21,0.012c-0.004-0.139-0.016-0.282-0.025-0.421c-0.012-0.131,0.197-0.159,0.211-0.013
			C115.591,52.837,115.603,52.981,115.608,53.119L115.608,53.119z M115.543,52.066c0.012,0.132-0.197,0.159-0.21,0.014
			c-0.009-0.14-0.018-0.28-0.028-0.421c-0.012-0.132,0.197-0.159,0.211-0.014C115.525,51.785,115.534,51.926,115.543,52.066
			L115.543,52.066z M115.472,51.014c0.012,0.133-0.197,0.159-0.21,0.015l-0.03-0.421c-0.012-0.133,0.197-0.158,0.21-0.015
			L115.472,51.014L115.472,51.014z M115.395,49.961c0.012,0.135-0.198,0.158-0.21,0.016c-0.01-0.14-0.021-0.28-0.032-0.42
			c-0.012-0.135,0.197-0.158,0.21-0.016C115.373,49.681,115.385,49.821,115.395,49.961L115.395,49.961z M115.313,48.91
			c0.012,0.136-0.198,0.158-0.21,0.017c-0.011-0.14-0.022-0.28-0.035-0.42c-0.012-0.136,0.197-0.158,0.21-0.017L115.313,48.91
			L115.313,48.91z M115.225,47.859c0.012,0.137-0.198,0.158-0.21,0.018l-0.036-0.42c-0.012-0.138,0.198-0.158,0.21-0.019
			L115.225,47.859L115.225,47.859z M115.132,46.808c0.013,0.138-0.197,0.158-0.21,0.019l-0.038-0.42
			c-0.013-0.139,0.197-0.157,0.21-0.019L115.132,46.808L115.132,46.808z M115.035,45.757c0.013,0.14-0.197,0.157-0.21,0.02
			l-0.04-0.42c-0.013-0.14,0.198-0.157,0.21-0.02L115.035,45.757L115.035,45.757z M115.534,44.45c-0.15,0-0.137-0.211-0.009-0.211
			c0.142-0.006,0.283-0.009,0.425-0.011c0.141,0,0.139,0.211,0.001,0.211C115.813,44.441,115.674,44.445,115.534,44.45
			L115.534,44.45z M116.58,44.45c-0.129,0-0.141-0.211,0.008-0.211c0.141,0.005,0.283,0.012,0.424,0.022
			c0.145,0.013,0.118,0.222-0.014,0.21C116.859,44.462,116.72,44.455,116.58,44.45L116.58,44.45z M117.625,44.523
			c-0.135-0.012-0.12-0.223,0.022-0.21c0.141,0.014,0.281,0.03,0.421,0.048c0.13,0.012,0.121,0.223-0.026,0.209
			C117.903,44.553,117.764,44.538,117.625,44.523L117.625,44.523z M118.665,44.658c-0.143-0.026-0.098-0.232,0.032-0.208
			c0.14,0.021,0.279,0.044,0.418,0.068c0.139,0.025,0.099,0.232-0.036,0.208C118.942,44.702,118.803,44.679,118.665,44.658
			L118.665,44.658z M119.699,44.841c-0.132-0.024-0.1-0.233,0.041-0.207c0.139,0.027,0.276,0.057,0.415,0.086
			c0.128,0.023,0.101,0.233-0.045,0.206C119.983,44.892,119.83,44.867,119.699,44.841L119.699,44.841z M121.744,45.324
			c-0.134-0.037-0.078-0.24,0.055-0.204c0.136,0.037,0.272,0.074,0.408,0.112c0.132,0.036,0.079,0.24-0.057,0.203
			C122.014,45.397,121.879,45.36,121.744,45.324L121.744,45.324z M122.755,45.611c-0.133-0.04-0.072-0.242,0.06-0.202
			c0.135,0.04,0.27,0.081,0.405,0.123c0.13,0.039,0.073,0.242-0.063,0.201C123.025,45.691,122.889,45.651,122.755,45.611
			L122.755,45.611z M123.76,45.924c-0.127-0.038-0.074-0.242,0.065-0.201c0.134,0.043,0.268,0.088,0.402,0.132
			c0.133,0.054,0.064,0.239-0.067,0.2C124.026,46.012,123.893,45.967,123.76,45.924L123.76,45.924z M124.757,46.26
			c-0.14-0.056-0.049-0.246,0.069-0.199c0.133,0.046,0.266,0.093,0.399,0.14c0.138,0.055,0.049,0.247-0.071,0.199
			C125.023,46.351,124.889,46.305,124.757,46.26L124.757,46.26z M125.748,46.614c-0.136-0.055-0.049-0.247,0.073-0.198
			c0.132,0.048,0.265,0.097,0.396,0.147c0.134,0.054,0.05,0.247-0.075,0.197C126.012,46.711,125.88,46.662,125.748,46.614
			L125.748,46.614z M126.733,46.986c-0.132-0.053-0.05-0.247,0.076-0.197l0.394,0.154c0.13,0.052,0.05,0.247-0.077,0.196
			L126.733,46.986L126.733,46.986z M127.694,47.364c-0.102-0.062-0.026-0.236,0.097-0.186l0.061,0.025
			c0.061,0.136,0.119,0.271,0.176,0.409c0.052,0.13-0.144,0.207-0.196,0.079C127.789,47.581,127.741,47.471,127.694,47.364
			L127.694,47.364z M128.051,48.277c-0.047-0.117,0.143-0.21,0.2-0.068c0.046,0.134,0.09,0.269,0.132,0.404
			c0.041,0.136-0.162,0.193-0.201,0.063C128.14,48.542,128.097,48.409,128.051,48.277L128.051,48.277z M128.357,49.278
			c-0.036-0.133,0.167-0.19,0.204-0.054c0.036,0.137,0.072,0.273,0.106,0.41c0.035,0.128-0.167,0.191-0.205,0.05
			C128.428,49.549,128.393,49.414,128.357,49.278L128.357,49.278z M128.602,50.298c-0.026-0.144,0.183-0.173,0.206-0.044
			c0.029,0.138,0.058,0.276,0.085,0.415c0.025,0.14-0.183,0.174-0.207,0.04C128.66,50.572,128.632,50.435,128.602,50.298
			L128.602,50.298z M128.8,51.329c-0.024-0.134,0.182-0.175,0.208-0.035c0.023,0.139,0.046,0.278,0.068,0.417
			c0.024,0.131-0.182,0.176-0.208,0.033C128.846,51.606,128.824,51.468,128.8,51.329L128.8,51.329z M128.96,52.368
			c-0.013-0.14,0.184-0.166,0.209-0.029c0.019,0.14,0.038,0.28,0.055,0.419c0.014,0.147-0.197,0.156-0.209,0.026
			C128.997,52.646,128.978,52.507,128.96,52.368L128.96,52.368z M129.088,53.412c-0.013-0.143,0.197-0.156,0.21-0.022
			c0.015,0.14,0.03,0.28,0.044,0.42c0.013,0.14-0.197,0.157-0.21,0.021L129.088,53.412L129.088,53.412z M129.189,54.459
			c-0.013-0.137,0.197-0.158,0.21-0.018l0.034,0.421c0.012,0.135-0.197,0.158-0.21,0.016L129.189,54.459L129.189,54.459z
			 M129.268,55.508c-0.012-0.132,0.197-0.159,0.21-0.014l0.026,0.422c0.012,0.13-0.197,0.159-0.211,0.012L129.268,55.508
			L129.268,55.508z M129.326,56.559c0-0.141,0.198-0.149,0.211-0.01l0.019,0.422c0,0.149-0.211,0.137-0.211,0.008L129.326,56.559
			L129.326,56.559z M129.368,57.611c0-0.147,0.211-0.138,0.211-0.007l0.012,0.422c0,0.146-0.211,0.138-0.211,0.005L129.368,57.611
			L129.368,57.611z M129.394,58.664c0-0.144,0.211-0.138,0.211-0.004l0.007,0.422c0,0.142-0.211,0.138-0.211,0.003L129.394,58.664
			L129.394,58.664z M129.407,59.717c0-0.141,0.211-0.139,0.211-0.001c0.001,0.141,0,0.282,0.002,0.422c0,0.139-0.211,0.139-0.211,0
			C129.407,59.998,129.408,59.857,129.407,59.717z"/>
		<path style="fill-rule:evenodd;clip-rule:evenodd;fill:#F08C52;" d="M97.493,61.076c0,0.137,0.211,0.14,0.211-0.002l-0.003-0.421
			c0-0.138-0.211-0.139-0.211,0.001L97.493,61.076L97.493,61.076z M105.947,45.079l0.406-0.112c0.134-0.037,0.079-0.24-0.055-0.203
			l-0.408,0.112C105.758,44.912,105.811,45.116,105.947,45.079L105.947,45.079z M111.348,56.164c0,0.149,0.211,0.137,0.211,0.008
			c0.005-0.14,0.01-0.281,0.016-0.421c0-0.15-0.211-0.137-0.211-0.009C111.358,55.883,111.353,56.024,111.348,56.164L111.348,56.164
			z M111.391,55.11c0,0.14,0.198,0.149,0.211,0.009l0.019-0.421c0-0.141-0.198-0.149-0.211-0.01L111.391,55.11L111.391,55.11z
			 M111.442,54.056c-0.012,0.128,0.197,0.159,0.21,0.011l0.023-0.421c0.012-0.129-0.197-0.159-0.211-0.011L111.442,54.056
			L111.442,54.056z M111.5,53.002c-0.012,0.13,0.197,0.159,0.211,0.012c0.005-0.138,0.017-0.282,0.025-0.421
			c0.012-0.13-0.197-0.159-0.211-0.013C111.517,52.72,111.505,52.864,111.5,53.002L111.5,53.002z M111.565,51.949
			c-0.012,0.132,0.197,0.159,0.21,0.014c0.009-0.14,0.017-0.281,0.028-0.421c0.012-0.132-0.197-0.159-0.21-0.014
			C111.583,51.668,111.574,51.809,111.565,51.949L111.565,51.949z M111.636,50.897c-0.012,0.133,0.197,0.159,0.21,0.015l0.03-0.42
			c0.012-0.134-0.197-0.159-0.21-0.015L111.636,50.897L111.636,50.897z M111.713,49.844c-0.012,0.135,0.197,0.158,0.21,0.016
			c0.009-0.14,0.021-0.28,0.032-0.42c0.012-0.135-0.197-0.158-0.21-0.016C111.735,49.564,111.723,49.704,111.713,49.844
			L111.713,49.844z M111.796,48.793c-0.012,0.136,0.197,0.158,0.21,0.017c0.011-0.14,0.022-0.28,0.034-0.42
			c0.013-0.136-0.197-0.158-0.21-0.017L111.796,48.793L111.796,48.793z M111.883,47.742c-0.012,0.137,0.197,0.158,0.21,0.018
			l0.036-0.42c0.012-0.138-0.197-0.158-0.21-0.018L111.883,47.742L111.883,47.742z M111.976,46.691
			c-0.013,0.138,0.198,0.157,0.21,0.019l0.038-0.42c0.013-0.139-0.197-0.158-0.21-0.02L111.976,46.691L111.976,46.691z
			 M112.073,45.64c-0.012,0.139,0.198,0.157,0.21,0.02l0.041-0.42c0.012-0.14-0.198-0.157-0.21-0.02L112.073,45.64L112.073,45.64z
			 M111.574,44.334c0.15,0,0.137-0.211,0.008-0.211c-0.142-0.006-0.283-0.009-0.425-0.011c-0.141,0-0.139,0.211-0.001,0.211
			C111.295,44.324,111.434,44.328,111.574,44.334L111.574,44.334z M110.528,44.333c0.129,0,0.141-0.211-0.008-0.211
			c-0.141,0.005-0.283,0.012-0.424,0.022c-0.145,0.013-0.118,0.222,0.014,0.21C110.249,44.345,110.389,44.338,110.528,44.333
			L110.528,44.333z M109.483,44.407c0.135-0.012,0.12-0.223-0.022-0.21c-0.141,0.014-0.281,0.03-0.421,0.048
			c-0.13,0.012-0.121,0.223,0.026,0.209C109.205,44.436,109.344,44.421,109.483,44.407L109.483,44.407z M108.443,44.541
			c0.143-0.026,0.098-0.232-0.033-0.208c-0.139,0.021-0.279,0.045-0.418,0.069c-0.139,0.025-0.099,0.232,0.036,0.208
			C108.167,44.585,108.305,44.562,108.443,44.541L108.443,44.541z M107.409,44.724c0.132-0.024,0.1-0.232-0.041-0.207
			c-0.139,0.028-0.277,0.057-0.415,0.086c-0.128,0.023-0.101,0.233,0.044,0.206C107.125,44.775,107.278,44.75,107.409,44.724
			L107.409,44.724z M105.364,45.207c0.134-0.037,0.078-0.24-0.055-0.203c-0.136,0.037-0.272,0.074-0.408,0.112
			c-0.132,0.036-0.079,0.24,0.057,0.203C105.094,45.281,105.229,45.243,105.364,45.207L105.364,45.207z M104.353,45.494
			c0.133-0.04,0.073-0.242-0.06-0.202c-0.135,0.04-0.27,0.081-0.405,0.123c-0.13,0.039-0.073,0.242,0.063,0.201
			C104.083,45.574,104.219,45.534,104.353,45.494L104.353,45.494z M103.348,45.808c0.127-0.038,0.074-0.242-0.065-0.201
			c-0.134,0.043-0.268,0.087-0.401,0.132c-0.133,0.053-0.064,0.239,0.067,0.2C103.082,45.895,103.215,45.851,103.348,45.808
			L103.348,45.808z M102.351,46.143c0.14-0.056,0.049-0.246-0.069-0.199c-0.133,0.046-0.266,0.093-0.399,0.14
			c-0.138,0.055-0.049,0.247,0.071,0.199C102.086,46.234,102.219,46.188,102.351,46.143L102.351,46.143z M101.36,46.497
			c0.136-0.054,0.049-0.247-0.073-0.198c-0.132,0.048-0.265,0.097-0.396,0.147c-0.134,0.054-0.05,0.247,0.074,0.197
			C101.096,46.595,101.228,46.545,101.36,46.497L101.36,46.497z M100.375,46.869c0.132-0.053,0.05-0.247-0.076-0.197l-0.393,0.154
			c-0.13,0.052-0.05,0.247,0.077,0.196L100.375,46.869L100.375,46.869z M99.415,47.247c0.101-0.062,0.026-0.236-0.098-0.187
			l-0.061,0.025c-0.061,0.136-0.119,0.271-0.176,0.409c-0.052,0.13,0.144,0.207,0.196,0.079
			C99.319,47.464,99.367,47.354,99.415,47.247L99.415,47.247z M99.057,48.16c0.047-0.117-0.143-0.209-0.2-0.068
			c-0.046,0.134-0.09,0.268-0.132,0.403c-0.041,0.136,0.162,0.193,0.201,0.063C98.968,48.425,99.011,48.292,99.057,48.16
			L99.057,48.16z M98.751,49.162c0.036-0.133-0.167-0.19-0.204-0.054c-0.037,0.137-0.072,0.273-0.106,0.411
			c-0.035,0.128,0.166,0.191,0.205,0.05C98.68,49.432,98.715,49.297,98.751,49.162L98.751,49.162z M98.506,50.181
			c0.026-0.145-0.183-0.173-0.206-0.044c-0.03,0.138-0.058,0.277-0.085,0.415c-0.025,0.14,0.183,0.174,0.207,0.04
			C98.448,50.456,98.477,50.318,98.506,50.181L98.506,50.181z M98.308,51.213c0.024-0.134-0.183-0.175-0.208-0.036
			c-0.024,0.139-0.046,0.278-0.068,0.418c-0.024,0.131,0.182,0.176,0.208,0.033C98.262,51.489,98.284,51.351,98.308,51.213
			L98.308,51.213z M98.148,52.251c0.013-0.14-0.184-0.166-0.209-0.029c-0.019,0.14-0.037,0.28-0.055,0.419
			c-0.013,0.147,0.197,0.156,0.209,0.026C98.111,52.529,98.13,52.39,98.148,52.251L98.148,52.251z M98.02,53.295
			c0.013-0.143-0.198-0.157-0.21-0.022c-0.015,0.14-0.03,0.28-0.044,0.42c-0.013,0.14,0.198,0.157,0.21,0.02L98.02,53.295
			L98.02,53.295z M97.919,54.342c0.013-0.137-0.197-0.158-0.21-0.018l-0.034,0.421c-0.012,0.134,0.197,0.158,0.21,0.016
			L97.919,54.342L97.919,54.342z M97.841,55.391c0.012-0.132-0.197-0.159-0.21-0.014l-0.026,0.422
			c-0.012,0.13,0.197,0.159,0.211,0.012L97.841,55.391L97.841,55.391z M97.782,56.442c0-0.141-0.198-0.149-0.211-0.01l-0.019,0.422
			c0,0.15,0.211,0.137,0.211,0.009L97.782,56.442L97.782,56.442z M97.74,57.494c0-0.147-0.211-0.137-0.211-0.007l-0.012,0.422
			c0,0.146,0.211,0.138,0.211,0.005L97.74,57.494L97.74,57.494z M97.714,58.547c0-0.144-0.211-0.138-0.211-0.004l-0.007,0.422
			c0,0.143,0.211,0.138,0.211,0.003L97.714,58.547L97.714,58.547z M97.702,59.6c0-0.14-0.211-0.139-0.211-0.001
			c-0.001,0.141,0,0.281-0.002,0.422c0,0.139,0.211,0.139,0.211,0C97.701,59.881,97.701,59.74,97.702,59.6z"/>
		<path style="fill-rule:evenodd;clip-rule:evenodd;fill:#571A0B;" d="M111.262,66.19c-5.465-2.333-9.133-1.615-13.116,2.245
			c2.343-3.583,8.793-6.452,12.86-6.322C112.486,64.625,111.262,66.19,111.262,66.19z"/>
		<path style="fill-rule:evenodd;clip-rule:evenodd;fill:#F78A5B;" d="M111.738,79.649c1.24,0.519,2.491,0.479,3.755-0.119
			c0.934-0.665,1.007-1.757,1.066-3.278c-1.873,0.766-4.68,0.843-6.145,0.116C110.669,77.737,110.802,78.753,111.738,79.649z"/>
		<path style="fill-rule:evenodd;clip-rule:evenodd;fill:#FFDECC;" d="M101.043,72.658c2.334-4.213,6.885-6.86,8.231-0.032
			c-0.982,0.74-2.386,0.493-3.62,0.558C104.159,73.263,102.785,73.503,101.043,72.658z"/>
		<path style="fill-rule:evenodd;clip-rule:evenodd;fill:#ED7C4C;" d="M108.902,69.367c-2.588-0.815-5.245-0.093-7.971,2.167
			c0.755-3.093,2.138-4.85,4.149-5.273C106.634,66.165,107.908,67.201,108.902,69.367z"/>
		<path style="fill-rule:evenodd;clip-rule:evenodd;fill:#F78A5B;" d="M111.29,79.022c-1.329-0.542-1.707-0.81-1.73,0.745
			c-1.143-0.563-1.919-0.855-1.79-1.407C108.127,76.827,110.722,75.918,111.29,79.022z"/>
		<path style="fill-rule:evenodd;clip-rule:evenodd;fill:#F78A5B;" d="M115.779,79.08c1.329-0.542,1.707-0.81,1.73,0.745
			c1.143-0.563,1.919-0.855,1.79-1.407C118.942,76.885,116.347,75.977,115.779,79.08z"/>
		<path style="fill-rule:evenodd;clip-rule:evenodd;fill:#F78A5B;" d="M111.32,74.814c1.438-1.62,2.921-1.648,4.449-0.082
			C114.514,73.935,113.031,73.962,111.32,74.814z"/>
		<path style="fill-rule:evenodd;clip-rule:evenodd;fill:#273E70;" d="M105.329,73.543c1.304,0,2.367-1.087,2.367-2.421
			s-1.063-2.421-2.367-2.421c-1.304,0-2.367,1.088-2.367,2.421S104.025,73.543,105.329,73.543z"/>
		<path style="fill-rule:evenodd;clip-rule:evenodd;fill:#3C5FAB;" d="M103.688,72.366c1.218-0.838,2.365-0.927,3.44-0.268
			C106.337,73.574,104.619,73.472,103.688,72.366z"/>
		<path style="fill-rule:evenodd;clip-rule:evenodd;fill:#4D2814;" d="M108.636,68.579c0.593-0.131,0.895-0.308,1.435-0.784
			c-0.23,0.601-0.397,1.028-1.054,1.684c-1.886-0.629-6.081-0.333-8.557,2.938c0.019-0.048,0.039-0.095,0.06-0.142h0
			c-0.938,0.026-1.622-0.159-2.051-0.554c0.765,0.174,1.516,0.219,2.255,0.135c0.036-0.068,0.074-0.135,0.113-0.201
			c-0.863,0.003-1.498-0.182-1.904-0.557c0.735,0.167,1.458,0.215,2.17,0.144C102.886,68.709,106.478,67.651,108.636,68.579z"/>
		<path style="fill-rule:evenodd;clip-rule:evenodd;fill:#0D1526;" d="M105.329,72.825c0.917,0,1.665-0.765,1.665-1.703
			s-0.748-1.703-1.665-1.703c-0.917,0-1.665,0.765-1.665,1.703S104.412,72.825,105.329,72.825z"/>
		<path style="fill-rule:evenodd;clip-rule:evenodd;fill:#FFFFFF;" d="M105.398,71.266c-0.9-0.057-2.033,0.177-3.399,0.7
			c1.219-1.031,2.279-1.535,3.182-1.514C105.326,70.994,105.398,71.266,105.398,71.266z"/>
		<path style="fill-rule:evenodd;clip-rule:evenodd;fill:#FFA57F;" d="M106.135,66.675c-1.288,0.92-1.303,1.397-0.043,1.431
			c-0.668-0.029-1.393,0.174-2.176,0.61c1.679-1.7,1.873-2.369,0.58-2.009C105.126,66.462,105.673,66.451,106.135,66.675z"/>
		<path style="fill-rule:evenodd;clip-rule:evenodd;fill:#FFC2A8;" d="M111.825,75.498c1.003,0.469,2.218,0.689,3.646,0.659
			c-1.241,0.523-2.642,0.462-4.202-0.185C111.671,75.573,111.856,75.415,111.825,75.498z"/>
		<path style="fill-rule:evenodd;clip-rule:evenodd;fill:#F78A5B;" d="M100.301,73.361c1.832,0.412,3.506-0.484,5.027-0.535
			c1.42-0.048,2.496,0.105,3.843,0.354c-1.294,0.277-2.543,1.438-4.489,1.709C102.84,75.145,101.132,75.011,100.301,73.361z"/>
		<path style="fill-rule:evenodd;clip-rule:evenodd;fill:#854A2B;" d="M100.432,73.608c2.849,0.26,4.976-1.176,9.089-0.364
			c-2.721-1.323-6.271-0.015-9.089-0.378c-0.824,0.494-1.236,0.742-1.236,0.742C100.322,73.608,100.432,73.608,100.432,73.608z"/>
		<path style="fill-rule:evenodd;clip-rule:evenodd;fill:#FF9175;" d="M99.009,77.775c1.179,1.305,2.706,1.648,4.199,1.38
			c2.615-0.468,5.373-2.108,5.73-4.429C104.284,73.783,100.705,75.483,99.009,77.775z"/>
		<path style="fill-rule:evenodd;clip-rule:evenodd;fill:#962D21;" d="M111.799,79.674c-0.81-1.182-1.592-1.458-2.285-0.805
			c0.251,0.547,0.745,0.863,1.483,0.948C111.491,79.705,111.738,79.649,111.799,79.674z"/>
		<path style="fill-rule:evenodd;clip-rule:evenodd;fill:#962D21;" d="M115.322,79.633c0.81-1.181,1.592-1.458,2.285-0.805
			c-0.251,0.547-0.745,0.863-1.483,0.948C115.63,79.664,115.383,79.608,115.322,79.633z"/>
		<path style="fill-rule:evenodd;clip-rule:evenodd;fill:#F28061;" d="M105.916,75.586c0.225-0.035,0.42,0.024,0.437,0.131
			c0.017,0.107-0.152,0.221-0.377,0.256c-0.225,0.035-0.421-0.024-0.437-0.131C105.522,75.735,105.691,75.621,105.916,75.586
			L105.916,75.586z M104.172,77.522c0.225-0.034,0.42,0.024,0.437,0.131c0.017,0.107-0.153,0.221-0.377,0.256
			c-0.225,0.035-0.421-0.024-0.437-0.131C103.778,77.672,103.947,77.557,104.172,77.522L104.172,77.522z M103.039,76.919
			c0.225-0.035,0.42,0.024,0.437,0.131c0.017,0.107-0.153,0.222-0.378,0.256c-0.225,0.034-0.42-0.024-0.437-0.131
			C102.645,77.068,102.814,76.954,103.039,76.919L103.039,76.919z M104.953,76.624c0.225-0.035,0.42,0.024,0.437,0.131
			c0.016,0.107-0.152,0.222-0.377,0.256c-0.225,0.035-0.421-0.024-0.437-0.131C104.559,76.773,104.728,76.659,104.953,76.624
			L104.953,76.624z M104.002,75.881c0.225-0.035,0.421,0.024,0.437,0.131c0.016,0.107-0.153,0.221-0.378,0.256
			c-0.225,0.035-0.421-0.024-0.437-0.131C103.609,76.031,103.777,75.916,104.002,75.881L104.002,75.881z M102.231,76.154
			c0.225-0.035,0.421,0.024,0.437,0.131c0.017,0.107-0.152,0.221-0.377,0.256c-0.225,0.035-0.421-0.024-0.437-0.131
			C101.837,76.304,102.007,76.189,102.231,76.154z"/>
		<path style="fill-rule:evenodd;clip-rule:evenodd;fill:#571A0B;" d="M93.513,64.517c0.71,0.525,0.976,1.13,0.798,1.814
			c-1.177,0.624-2.207,0.5-3.09-0.371C92.061,66.26,92.825,65.779,93.513,64.517z"/>
		<path style="fill-rule:evenodd;clip-rule:evenodd;fill:#155A82;" d="M131.855,63.95c-13.686-3.569-23.378-3.571-37.063-0.002
			c1.326-2.575,5.054-3.926,6.728-5.876c10.982-2.905,12.627-2.903,23.607,0.002C126.8,60.024,130.529,61.375,131.855,63.95z"/>
		<path style="fill-rule:evenodd;clip-rule:evenodd;fill:#2CA5C7;" d="M125.761,57.992c1.468,0.829,4.121,3.045,5.002,4.338
			c1.104,1.619,0.959,1.669,0.905,2.167c-6.589-0.496-4.956-3.379-6.971-4.85c-4.501-3.286-18.25-3.286-22.749-0.002
			c-2.015,1.471-0.381,4.354-6.971,4.85c-0.053-0.499-0.198-0.548,0.906-2.167c0.881-1.293,3.534-3.509,5.002-4.338
			C106.003,54.587,120.649,54.592,125.761,57.992z"/>
		<path style="fill-rule:evenodd;clip-rule:evenodd;fill:#38BADE;" d="M101.651,57.678c-1.341,1.341-1.261,1.891,0.241,1.648
			C101.204,59.139,101.124,58.589,101.651,57.678z"/>
		<path style="fill-rule:evenodd;clip-rule:evenodd;fill:#38BADE;" d="M124.747,57.712c1.342,1.341,1.262,1.891-0.24,1.648
			C125.195,59.172,125.275,58.623,124.747,57.712z"/>
		<path style="fill-rule:evenodd;clip-rule:evenodd;fill:#298FAB;" d="M110.517,41.964c1.594-0.525,3.433-0.527,5.515-0.005
			c0.092-0.036,0.053,0.171-0.117,0.621c-1.487,0.177-3.252,0.164-5.294-0.041C110.453,42.118,110.419,41.926,110.517,41.964z"/>
		<path style="fill-rule:evenodd;clip-rule:evenodd;fill:#2191B0;" d="M95.351,64.143c0.01-0.616,0.654-1.562,1.933-2.839
			c1.127-0.228,2.138-0.559,3.033-0.993c-0.214,1.539-0.68,2.48-1.4,2.822C96.539,63.807,95.351,64.143,95.351,64.143z"/>
		<path style="fill-rule:evenodd;clip-rule:evenodd;fill:#2191B0;" d="M131.265,63.856c-0.01-0.616-0.654-1.563-1.933-2.839
			c-1.127-0.228-2.138-0.559-3.033-0.993c0.214,1.539,0.68,2.48,1.4,2.822C130.076,63.52,131.265,63.856,131.265,63.856z"/>
		<path style="fill-rule:evenodd;clip-rule:evenodd;fill:#FF9466;" d="M128.307,68.05c-5.087-4.567-9.017-5.811-11.791-3.733
			c-1.791,1.304-2.038,4.545-0.741,9.722c1.239-6.96,4.851-7.468,10.834-1.524C129.153,72.907,129.719,71.419,128.307,68.05z"/>
		<path style="fill-rule:evenodd;clip-rule:evenodd;fill:#571A0B;" d="M115.301,66.072c5.465-2.332,9.133-1.615,13.116,2.245
			c-2.344-3.583-8.793-6.452-12.859-6.322C114.077,64.508,115.301,66.072,115.301,66.072z"/>
		<path style="fill-rule:evenodd;clip-rule:evenodd;fill:#FFDECC;" d="M125.519,72.541c-2.334-4.213-6.885-6.86-8.23-0.032
			c0.982,0.74,2.386,0.493,3.62,0.558C122.403,73.146,123.778,73.385,125.519,72.541z"/>
		<path style="fill-rule:evenodd;clip-rule:evenodd;fill:#ED7C4C;" d="M117.661,69.249c2.588-0.815,5.245-0.093,7.971,2.167
			c-0.755-3.093-2.138-4.85-4.149-5.273C119.929,66.048,118.655,67.083,117.661,69.249z"/>
		<path style="fill-rule:evenodd;clip-rule:evenodd;fill:#273E70;" d="M121.234,73.425c1.304,0,2.367-1.087,2.367-2.421
			c0-1.333-1.063-2.421-2.367-2.421c-1.303,0-2.367,1.088-2.367,2.421C118.867,72.338,119.93,73.425,121.234,73.425z"/>
		<path style="fill-rule:evenodd;clip-rule:evenodd;fill:#3C5FAB;" d="M122.874,72.248c-1.218-0.838-2.365-0.927-3.44-0.268
			C120.225,73.456,121.943,73.355,122.874,72.248z"/>
		<path style="fill-rule:evenodd;clip-rule:evenodd;fill:#4D2814;" d="M117.926,68.462c-0.593-0.131-0.895-0.308-1.435-0.783
			c0.23,0.601,0.397,1.028,1.054,1.684c1.886-0.629,6.081-0.333,8.557,2.938c-0.02-0.048-0.04-0.095-0.06-0.142l0,0
			c0.939,0.026,1.622-0.159,2.051-0.554c-0.765,0.174-1.516,0.219-2.255,0.135c-0.036-0.068-0.074-0.135-0.113-0.201
			c0.863,0.003,1.497-0.182,1.904-0.557c-0.735,0.167-1.459,0.215-2.17,0.144C123.677,68.592,120.084,67.533,117.926,68.462z"/>
		<path style="fill-rule:evenodd;clip-rule:evenodd;fill:#0D1526;" d="M121.234,72.708c0.917,0,1.665-0.765,1.665-1.703
			c0-0.938-0.748-1.703-1.665-1.703c-0.917,0-1.665,0.765-1.665,1.703C119.569,71.943,120.317,72.708,121.234,72.708z"/>
		<path style="fill-rule:evenodd;clip-rule:evenodd;fill:#FFFFFF;" d="M121.164,71.148c0.9-0.057,2.033,0.177,3.399,0.701
			c-1.218-1.031-2.279-1.535-3.182-1.514C121.236,70.877,121.164,71.148,121.164,71.148z"/>
		<path style="fill-rule:evenodd;clip-rule:evenodd;fill:#FFA57F;" d="M120.428,66.557c1.289,0.92,1.303,1.397,0.043,1.431
			c0.668-0.029,1.393,0.174,2.177,0.61c-1.68-1.7-1.873-2.369-0.58-2.009C121.436,66.344,120.889,66.334,120.428,66.557z"/>
		<path style="fill-rule:evenodd;clip-rule:evenodd;fill:#F78A5B;" d="M126.261,73.244c-1.832,0.412-3.506-0.484-5.027-0.535
			c-1.42-0.048-2.496,0.105-3.843,0.354c1.294,0.277,2.543,1.438,4.489,1.709C123.722,75.027,125.431,74.894,126.261,73.244z"/>
		<path style="fill-rule:evenodd;clip-rule:evenodd;fill:#854A2B;" d="M126.13,73.49c-2.849,0.26-4.976-1.176-9.089-0.364
			c2.721-1.323,6.271-0.015,9.089-0.378c0.824,0.495,1.236,0.742,1.236,0.742C126.24,73.49,126.13,73.49,126.13,73.49z"/>
		<path style="fill-rule:evenodd;clip-rule:evenodd;fill:#FF9175;" d="M127.553,77.658c-1.179,1.305-2.706,1.648-4.198,1.38
			c-2.615-0.468-5.373-2.108-5.73-4.429C122.278,73.665,125.857,75.365,127.553,77.658z"/>
		<path style="fill-rule:evenodd;clip-rule:evenodd;fill:#F28061;" d="M120.646,75.469c-0.225-0.035-0.421,0.024-0.437,0.131
			c-0.017,0.107,0.153,0.221,0.377,0.256c0.225,0.035,0.42-0.024,0.437-0.131C121.04,75.618,120.871,75.504,120.646,75.469
			L120.646,75.469z M122.39,77.405c-0.225-0.035-0.421,0.024-0.437,0.131c-0.017,0.107,0.153,0.222,0.377,0.256
			c0.225,0.035,0.421-0.024,0.437-0.131C122.784,77.554,122.615,77.44,122.39,77.405L122.39,77.405z M123.524,76.802
			c-0.225-0.035-0.421,0.024-0.437,0.131c-0.016,0.107,0.153,0.221,0.377,0.256c0.225,0.035,0.421-0.024,0.437-0.13
			C123.917,76.951,123.748,76.836,123.524,76.802L123.524,76.802z M121.61,76.507c-0.225-0.035-0.42,0.024-0.437,0.131
			c-0.017,0.107,0.152,0.222,0.377,0.256c0.225,0.035,0.42-0.024,0.437-0.131C122.004,76.656,121.835,76.541,121.61,76.507
			L121.61,76.507z M122.56,75.764c-0.225-0.035-0.421,0.024-0.437,0.131c-0.017,0.107,0.152,0.222,0.377,0.256
			c0.225,0.035,0.42-0.024,0.437-0.131C122.954,75.913,122.785,75.799,122.56,75.764L122.56,75.764z M124.331,76.037
			c-0.225-0.035-0.421,0.024-0.437,0.131c-0.017,0.107,0.153,0.222,0.378,0.256c0.225,0.035,0.42-0.024,0.437-0.13
			C124.725,76.187,124.556,76.072,124.331,76.037z"/>
	</g>
	<path style="opacity:0.5;fill-rule:evenodd;clip-rule:evenodd;fill:#8F8F8F;" d="M107.526,330.99
		c35.659,0,75.315,0.84,75.315,5.607c0,1.367-2.514,5.396-10.008,7.264c-6.813,1.698-8.305,0.051-14.245,0.802
		c-10.312,1.303-25.018,8.032-41.155,8.032c-6.796,0-11.965,11.965-18.117,11.705c-14.435-0.61-35.718-2.462-45.387-7.429
		c-7.832-4.024-7.277-14.958-7.277-16.685C46.652,335.518,71.867,330.99,107.526,330.99z"/>
	<path style="fill-rule:evenodd;clip-rule:evenodd;fill:#521E09;" d="M139.883,314.07c-4.094,2.106-9.676,1.157-16.746-2.848
		c-1.363,3.013-3.204,8.077-4.834,12.948c-0.978,2.475-1.468,3.712-1.468,3.712c2.504,2.666,5.697,4.594,9.581,5.783
		c2.187-0.633,2.073-0.6,2.073-0.6c5.973,3.604,7.189,8.831,13.378,9.229c4.448,0.286,10.122-0.298,15.106-0.256
		c0.576-1.899,0.863-2.849,0.863-2.849c-0.633-0.23-0.949-0.345-0.949-0.345c1.813-2.716,1.957-4.644,0.432-5.784
		c-7.382-2.358-12.072-4.545-14.07-6.56c0.46-1.272-0.317-1.934-2.331-1.985c-1.179-1.652-1.611-3.033-1.295-4.143
		C139.797,316.171,139.883,314.07,139.883,314.07z"/>
	<path style="fill-rule:evenodd;clip-rule:evenodd;fill:#4F97BD;" d="M122.177,306.234c-0.528,1.762-1.142,3.81-2.195,7.176
		c5.644,5.617,12.393,7.391,21.061,7.278c0.834-3.636,1.313-6.297,1.808-7.882c0.93-2.976-0.878-1.505-5.909-2.771
		c-3.053-0.768-6.258-2.126-10.479-4.31C123.914,304.408,122.906,303.801,122.177,306.234z"/>
	<path style="fill-rule:evenodd;clip-rule:evenodd;fill:#59220D;" d="M92.318,334.92c7.769-1.324,11.653-1.985,11.653-1.985
		c1.206,3.262,1.674,4.481,2.137,6.225c-0.125,2.381-0.679,3.924,0.367,6.334c0.36,2.768,0.96,5.778,0.592,7.216
		c-7.703-3.113-11.554-4.67-11.554-4.67C93.298,338.524,92.233,334.15,92.318,334.92z"/>
	<path style="fill-rule:evenodd;clip-rule:evenodd;fill:#4F97BD;" d="M84.115,326.969c0.06,1.84,0.13,3.98,0.201,7.51
		c7.574,3.642,14.968,3.282,23.664,0.541c-0.382-3.721-0.794-6.404-0.827-8.065c-0.063-3.121-1.391-1.168-6.884-0.846
		c-3.334,0.195-7.019-0.126-12.006-0.925C85.251,324.7,84.032,324.427,84.115,326.969z"/>
	<path style="fill-rule:evenodd;clip-rule:evenodd;fill:#276C91;" d="M131.252,259.288c-10.78-20.185-12.351-43.326-12.351-43.326
		s-4.197,0.463-8.447,0.697c-0.284,18.454-5.545,34.592-5.719,41.948c-0.005,0.199,0.067,0.161,1.88,0.58
		c0.842,0.195-1.777,4.941-1.304,5.007c1.58,0.222,2.393,1.505,1.567,6.578c-0.594,3.647,1.695,4.855,1.678,11.172
		c-0.032,11.751-6.07,31.976-3.646,46.741c-6.078,0.655-12.184,0.622-18.318-0.101c0.921-15.476,1.722-35.901-2.302-52.968
		c-0.177-0.751-0.255-5.479-0.763-7.04c-0.283-0.872-0.993-1.701-0.931-2.299c0.157-2.417,0.322-2.122,0.513-3.625
		c0.068-0.538-0.254-2.686-0.194-3.533c1.286-17.979,1.961-34,3.655-45.415c0.419-2.824,0.847-5.336,1.284-7.484
		c0.372-7.056,0.555-20.759,0.555-20.759c37.207,0.009,48.387-3.781,48.387-3.781c-0.897,13.854,3.988,25.755,3.988,25.755
		c9.741,21.736,6.145,37.829,10.653,47.834c0.624,1.385-0.624,5.465-0.447,6.362c-8.438,43.789-10.964,50.672-10.843,50.695
		c-4.312,1.051-13.521-1.238-15.778-6.001c11.855-31.763,2.208-36.121,7.716-44.69C129.419,259.611,129.142,258.829,131.252,259.288
		z"/>
	<path style="fill-rule:evenodd;clip-rule:evenodd;fill:#18597D;" d="M139.453,184.139c1.463,11.388,5.325,19.765,2.908,28.742
		c-3.493-7.161-3.971-11.735-6.801-12.662c-4.607-1.511-15.15,6.89-15.831,22.631c0.231-0.319-4.751-0.208-9.567,0.236
		c-3.781-7.22-13.184-19.17-17.142-19.072c-4.27,0.105-5.439,3.603-6.648,11.051c-3.444-4.373-0.984-26.696-0.984-26.696
		C117.635,188.135,139.453,184.139,139.453,184.139z"/>
	<path style="fill-rule:evenodd;clip-rule:evenodd;fill:#612B15;" d="M101.203,342.576c1.125,6.814,3.39,6.41,5.82,6.861
		c0.524,0.582,1.228,3.226,0.82,3.23c-8.353,0.09-14.199,0.858-18.035,0.519c-1.868-0.165-1.631-0.432-1.997-1.116
		c0.309-1.247-0.597-2.078-0.964-2.702c-0.604-1.027-2.719-1.692-4.682-3.332c-10.47-8.749-3.266-17.028,4.278-17.607
		C93.474,327.891,100.3,337.106,101.203,342.576z"/>
	<path style="fill-rule:evenodd;clip-rule:evenodd;fill:#1B5B7D;" d="M96.525,263.81c0.336,10.863-1.391,16.445-5.179,16.746
		c-2.745-3.906-4.529-9.431-5.352-16.573C88.726,265.658,92.236,265.6,96.525,263.81z"/>
	<path style="fill-rule:evenodd;clip-rule:evenodd;fill:#1B5B7D;" d="M140.064,254.215c-0.336,10.863,3.597,15.928,7.385,16.229
		c2.745-3.906,3.164-8.031,3.987-15.174C148.705,256.945,144.353,256.005,140.064,254.215z"/>
	<path style="fill-rule:evenodd;clip-rule:evenodd;fill:#75371E;" d="M78.584,338.318c12.139-1.87,17.534-2.702,17.534-2.702
		s-5.766,0.313-18.648,1.148C78.212,337.8,78.584,338.318,78.584,338.318z"/>
	<path style="fill-rule:evenodd;clip-rule:evenodd;fill:#75371E;" d="M78.727,340.999c12.095-2.074,18.142-3.111,18.142-3.111
		s-6.418,0.523-19.254,1.57C78.357,340.485,78.727,340.999,78.727,340.999z"/>
	<path style="fill-rule:evenodd;clip-rule:evenodd;fill:#75371E;" d="M80.945,343.459c12.095-2.074,18.142-3.111,18.142-3.111
		s-6.418,0.523-19.253,1.57C80.574,342.945,80.945,343.459,80.945,343.459z"/>
	<path style="fill-rule:evenodd;clip-rule:evenodd;fill:#75371E;" d="M83.717,345.611c10.815-1.855,16.222-2.782,16.222-2.782
		s-5.739,0.468-17.216,1.404C83.386,345.151,83.717,345.611,83.717,345.611z"/>
	<path style="fill-rule:evenodd;clip-rule:evenodd;fill:#276C91;" d="M130.993,193.967c-4.575,2.032-3.655,2.722,2.762,2.072
		c0,0-0.474,1.08-1.421,3.24c-4.262,0.581-10.613,3.518-13.875,11.575c0,0-1.749,1.277-10.427,1.068c0,0-3.842-3.068-11.528-9.203
		c-2.961-2.842-4.441-4.263-4.441-4.263c5.399,0.4,5.054-0.809-1.036-3.625C100.036,193.479,117.153,199.005,130.993,193.967z"/>
	<path style="fill-rule:evenodd;clip-rule:evenodd;fill:#18597D;" d="M116.522,196.126c-6.029-1.324-9.044-1.987-9.044-1.987
		c-0.62,11.864-0.173,20.726,6.001,19.249c2.14-0.23,3.209-0.259,3.209-0.259C116.808,201.526,116.753,195.858,116.522,196.126z"/>
	<path style="fill-rule:evenodd;clip-rule:evenodd;fill:#00334F;" d="M85.006,192.562c-0.277,4.961-0.415,7.441-0.415,7.441
		c20.467-5.388,39.79-5.2,57.971,0.563c-1.087-5.382-1.631-8.073-1.631-8.073C113.445,188.062,94.803,188.085,85.006,192.562z"/>
	<path style="fill-rule:evenodd;clip-rule:evenodd;fill:#276C91;" d="M115.667,197.598c-4.874-1.071-6.59-0.599-6.59-0.599
		c-0.407,7.782-1.049,15.18,6.724,14.345C115.898,201.963,115.853,197.381,115.667,197.598z"/>
	<path style="fill-rule:evenodd;clip-rule:evenodd;fill:#18597D;" d="M98.752,265.523c-2.565,1.146-4.292,2.09-5.409,1.535
		c-0.641-0.319,1.396-1.026,2.03-2.802c0.678-1.9-0.021-4.924-0.075-6.846c10.707-25.818,5.192-33.844,5.524-43.85
		c3.465,4.137,4.064,2.867,1.506-1.956c4.637,3.275,5.907,7.928,5.907,7.928c-0.325,12.332-2.724,25.432-4.22,31.922
		c-1.482,4.049-1.761,7.397,0.719,7.195C107.993,259.495,103.495,264.203,98.752,265.523z"/>
	<path style="fill-rule:evenodd;clip-rule:evenodd;fill:#18597D;" d="M103.968,264.585c-5.266,0.148-9.227-0.189-11.313,1.517
		c0.441,1.348,3.1,5.724,3.471,7.125c2.088,7.878,2.399,14.437,2.279,24.018c-0.438,13.705-2.47,26.336-1.781,31.908
		c2.071-0.037,3.094-0.075,6.235-0.272c-2.681-22.146,5.876-47.065,2.763-55.527c-1.239-3.369,0.907-4.04,0.552-6.839
		c-3.19,2.812-5.803,2.126-6.23,1.794C99.543,267.998,102.283,266.041,103.968,264.585z"/>
	<path style="fill-rule:evenodd;clip-rule:evenodd;fill:#1B5B7D;" d="M142.836,255.238c1.784,5.825,0.928,8.124,0.928,8.124
		c-2.25,0.097-0.864,8.369-3.253,18.896c-1.781,7.849-3.214,16.92-8.871,28.668c-2.199-0.81-3.91-1.804-5.222-2.846
		c12.098-24.101,1.403-38.144,9.361-45.797c-2.278-1.45-2.508-2.773-0.69-3.971c-2.074-1.344-14.753-34.298-15.685-37.737
		c-0.338-1.836,1.299-11.079,4.464-9.652c1.344,11.421,6.062,25.405,15.883,36.426C140.871,249.627,140.157,252.636,142.836,255.238
		z"/>
	<path style="fill-rule:evenodd;clip-rule:evenodd;fill:#59220D;" d="M120.284,324.604c2.996,3.215,6.276,4.193,10.358,4.316
		c10.123,5.557,5.451,8.64,13.197,9.75c2.378,0.341,5.474,0.436,11.102,0.436c1.15-1.46,1.411-3.793-0.158-4.607
		c-1.949-1.01-6.938-0.118-12.617-3.896c-0.254-0.422-2.54,0.897-2.625,0.464c-0.133-0.675,1.436-1.934,1.201-1.802
		c-0.056-2.712-1.307-3.36-3.755-1.942c-2.411-2.29-3.662-3.945-3.755-4.963c-2.758,0.397-5.673-0.19-7.365-0.9
		c-2.686-1.126-3.338-3.589-3.338-3.589C120.802,323.05,120.284,324.604,120.284,324.604z"/>
	<path style="fill-rule:evenodd;clip-rule:evenodd;fill:#59220D;" d="M145.014,339.752c-5.022,0.814-5.382,1.505-1.079,2.072
		c-1.705,0.305-3.605-0.126-5.697-1.295c2.319-0.189,2.434-1.066,0.345-2.633C139.964,338.682,142.107,339.301,145.014,339.752z"/>
	<path style="fill-rule:evenodd;clip-rule:evenodd;fill:#662910;" d="M149.632,335.177c3.108-0.541,4.82,0.013,5.136,1.662
		C152.916,337.021,151.204,336.467,149.632,335.177z"/>
	<path style="fill-rule:evenodd;clip-rule:evenodd;fill:#702F15;" d="M77.124,335.414c0.478-2.499,1.866-3.851,2.353-4.489
		c3.888-3.568,7.168-4.662,11.653-2.848c4.06,1.898,7.34,5.538,9.84,10.919c0.169,1.353,0.367,1.21-0.785,0.368
		c-3.027-5.657-7.05-10.116-12.096-10.615C84.348,328.378,79.446,330.145,77.124,335.414z"/>
	<path style="fill-rule:evenodd;clip-rule:evenodd;fill:#3A7A9C;" d="M99.955,330.102c0.144,3.51,0.216,5.266,0.216,5.266
		c2.093-0.028,4.524-0.402,7.294-1.122c0,0-0.288-2.273-0.863-6.819c0,0-0.187,0.561-0.561,1.683
		C106.04,329.109,104.012,329.44,99.955,330.102z"/>
	<path style="fill-rule:evenodd;clip-rule:evenodd;fill:#3A7A9C;" d="M129.001,311.371c-0.67,1.063-1.073,3.221-1.208,6.474
		c-2.321-0.976-4.694-2.573-7.121-4.791c0,0,0.935-2.36,2.805-7.078C124.017,308.016,125.859,309.814,129.001,311.371z"/>
	<path style="fill-rule:evenodd;clip-rule:evenodd;fill:#3A7A9C;" d="M137.331,313.486c2.417-0.161,3.986-0.593,4.704-1.295
		c-1.208,5.179-1.813,7.769-1.813,7.769c-1.852,0.214-3.477,0.127-4.877-0.259C136.792,316.611,137.453,314.539,137.331,313.486z"/>
	<path style="fill-rule:evenodd;clip-rule:evenodd;fill:#18597D;" d="M83.212,254.863c2.505-14.508,0.775-35.981,6.483-49.62
		C83.205,208.141,82.587,226.88,83.212,254.863z"/>
	<path style="fill-rule:evenodd;clip-rule:evenodd;fill:#18597D;" d="M140.351,201.486c7.95,20.465,6.671,30.921,8.838,44.764
		c-2.571-14.504-7.233-35.236-12.16-45.035C139.662,201.41,140.77,201.501,140.351,201.486z"/>
	<path style="fill-rule:evenodd;clip-rule:evenodd;fill:#59220D;" d="M80.426,330.094c6.53-5.278,11.618-4.892,15.265,1.157
		C90.524,326.899,85.436,326.513,80.426,330.094z"/>
	<path style="fill-rule:evenodd;clip-rule:evenodd;fill:#63270F;" d="M101.853,341.193c0.751,1.91,2.331,2.798,2.411,2.315
		c0.68-4.127-0.992-5.539-3.089-6.442c-1.657-0.714-3.018-3.198-3.72-3.87C100.243,337.326,101.71,339.991,101.853,341.193z"/>
	<path style="fill-rule:evenodd;clip-rule:evenodd;fill:#A87C34;" d="M126.162,307.949c-0.172,0.344,0.346,0.595,0.512,0.262
		c0.175-0.344,0.347-0.688,0.515-1.035c0.159-0.318-0.316-0.599-0.512-0.262C126.504,307.258,126.338,307.606,126.162,307.949
		L126.162,307.949z M102.552,328.588c0.027,0.383,0.601,0.336,0.574-0.037l-0.071-1.146c-0.024-0.334-0.516-0.384-0.574-0.005
		C102.479,327.768,102.528,328.212,102.552,328.588L102.552,328.588z M102.339,324.56c0.027,0.378,0.575,0.362,0.575-0.023
		c-0.016-0.383-0.03-0.765-0.043-1.148c0-0.302-0.453-0.402-0.563-0.072c-0.008,0.035-0.012,0.053-0.012,0.091
		C102.309,323.792,102.323,324.176,102.339,324.56L102.339,324.56z M102.226,320.528c0,0.336,0.515,0.405,0.574,0.025l0.002-0.033
		l-0.012-1.148c0-0.374-0.575-0.38-0.575,0.004L102.226,320.528L102.226,320.528z M102.221,316.493c0,0.357,0.518,0.398,0.573,0.042
		l0.002-0.035c0.004-0.383,0.011-0.765,0.019-1.148c0-0.375-0.548-0.393-0.575-0.021
		C102.229,315.718,102.226,316.107,102.221,316.493L102.221,316.493z M102.328,312.46c-0.024,0.33,0.486,0.431,0.569,0.069
		c0.044-0.363,0.038-0.817,0.057-1.192c0.024-0.344-0.513-0.436-0.574-0.043C102.354,311.676,102.343,312.076,102.328,312.46
		L102.328,312.46z M102.553,308.432c-0.027,0.378,0.547,0.418,0.574,0.04c0.021-0.379,0.056-0.765,0.086-1.144
		c0.027-0.384-0.547-0.418-0.573-0.046C102.609,307.663,102.574,308.05,102.553,308.432L102.553,308.432z M102.9,304.411
		c-0.027,0.375,0.513,0.441,0.572,0.061c0.027-0.374,0.081-0.768,0.122-1.143c0.027-0.385-0.518-0.438-0.572-0.064
		C102.979,303.646,102.939,304.029,102.9,304.411L102.9,304.411z M103.375,300.403c-0.053,0.37,0.516,0.458,0.57,0.077
		c0.051-0.379,0.104-0.758,0.159-1.137c0.054-0.377-0.516-0.456-0.569-0.083C103.48,299.641,103.426,300.022,103.375,300.403
		L103.375,300.403z M103.983,296.413c-0.015,0.098,0.015,0.186,0.083,0.254c0.162,0.163,0.45,0.068,0.485-0.157
		c0.061-0.377,0.13-0.755,0.198-1.131c0.021-0.14-0.048-0.264-0.176-0.318c-0.165-0.069-0.363,0.041-0.39,0.216
		C104.113,295.655,104.044,296.034,103.983,296.413L103.983,296.413z M104.807,292.457c-0.085,0.367,0.475,0.499,0.561,0.127
		l0.25-1.126c0.076-0.329-0.409-0.502-0.549-0.165l-0.013,0.044C104.975,291.711,104.89,292.084,104.807,292.457L104.807,292.457z
		 M105.623,288.526c-0.057,0.373,0.479,0.481,0.566,0.105c0.063-0.376,0.133-0.762,0.203-1.137c0.054-0.351-0.445-0.473-0.558-0.134
		C105.75,287.715,105.684,288.161,105.623,288.526L105.623,288.526z M106.244,284.566c-0.049,0.344,0.481,0.467,0.568,0.09
		c0.059-0.376,0.095-0.79,0.132-1.171c0.026-0.363-0.487-0.437-0.568-0.087C106.32,283.775,106.29,284.185,106.244,284.566
		L106.244,284.566z M106.546,280.584c0,0.154,0.114,0.28,0.266,0.291c0.163,0.013,0.308-0.12,0.308-0.283
		c0.006-0.387,0.006-0.777-0.008-1.164c-0.027-0.382-0.575-0.361-0.575,0.02C106.562,279.808,106.551,280.22,106.546,280.584
		L106.546,280.584z M106.206,276.654c0.084,0.363,0.646,0.241,0.559-0.134c-0.091-0.386-0.206-0.77-0.353-1.138
		c-0.124-0.322-0.635-0.178-0.545,0.183C105.995,275.944,106.112,276.258,106.206,276.654L106.206,276.654z M105.12,272.765
		c0.087,0.376,0.623,0.268,0.566-0.105c-0.07-0.371-0.117-0.729-0.147-1.106c-0.027-0.383-0.601-0.336-0.574,0.037
		C104.992,271.986,105.047,272.376,105.12,272.765L105.12,272.765z M105.334,268.731c-0.023,0.329,0.484,0.439,0.571,0.063
		c0.038-0.352,0.018-0.872-0.02-1.227c-0.024-0.332-0.545-0.358-0.573,0.014C105.322,267.983,105.353,268.319,105.334,268.731
		L105.334,268.731z M104.289,265.211c0.263,0.263,0.676-0.138,0.403-0.411c-0.118-0.118-0.244-0.221-0.376-0.322l0.088-0.252
		c0.091-0.296-0.263-0.508-0.481-0.29c-0.027,0.027-0.053,0.071-0.064,0.107c-0.074,0.222-0.158,0.437-0.243,0.655
		C103.865,264.861,104.079,265,104.289,265.211L104.289,265.211z M103.873,261.558c0.262,0.292,0.676-0.082,0.442-0.368
		l-0.055-0.063c-0.295-0.317-0.678-0.489-1.096-0.578c-0.323-0.074-0.506,0.406-0.159,0.551l0.041,0.011
		c0.313,0.069,0.605,0.188,0.818,0.435L103.873,261.558L103.873,261.558z M100.365,260.041c0.194,0.332,0.687,0.037,0.499-0.286
		c-0.172-0.297-0.293-0.654-0.356-0.99c-0.083-0.36-0.596-0.272-0.569,0.081l0.005,0.031
		C100.025,259.284,100.157,259.681,100.365,260.041L100.365,260.041z M100.159,255.919c-0.098,0.319,0.396,0.539,0.549,0.171
		c0.112-0.366,0.206-0.761,0.305-1.133c0.085-0.37-0.443-0.514-0.556-0.148L100.159,255.919L100.159,255.919z M101.185,252.03
		c-0.084,0.365,0.443,0.514,0.557,0.145c0.086-0.371,0.192-0.748,0.285-1.118c0.08-0.346-0.406-0.511-0.549-0.171
		C101.367,251.247,101.28,251.659,101.185,252.03L101.185,252.03z M102.16,248.127c-0.087,0.376,0.476,0.497,0.559,0.135
		c0.09-0.373,0.177-0.748,0.269-1.12c0.086-0.373-0.475-0.498-0.56-0.133L102.16,248.127L102.16,248.127z M103.077,244.211
		c-0.084,0.365,0.475,0.5,0.561,0.126l0.25-1.124c0.024-0.102-0.016-0.218-0.097-0.283c-0.17-0.137-0.416-0.052-0.465,0.159
		L103.077,244.211L103.077,244.211z M103.925,240.281c-0.078,0.337,0.438,0.5,0.556,0.144c0.095-0.37,0.157-0.781,0.236-1.158
		c0.074-0.32-0.408-0.501-0.55-0.159C104.067,239.457,104,239.914,103.925,240.281L103.925,240.281z M104.693,236.334
		c-0.021,0.137,0.046,0.264,0.172,0.317c0.166,0.069,0.366-0.035,0.394-0.214l0.203-1.135c0.014-0.092-0.014-0.193-0.083-0.255
		c-0.162-0.162-0.449-0.067-0.484,0.157L104.693,236.334L104.693,236.334z M105.363,232.372c-0.055,0.384,0.516,0.455,0.569,0.088
		c0.059-0.38,0.116-0.76,0.171-1.14c0.054-0.377-0.516-0.456-0.569-0.083C105.478,231.615,105.421,231.993,105.363,232.372
		L105.363,232.372z M105.914,228.393c-0.046,0.325,0.443,0.47,0.562,0.113l0.009-0.045c0.046-0.382,0.09-0.764,0.132-1.146
		c0.027-0.382-0.518-0.438-0.572-0.062C106.003,227.633,105.959,228.013,105.914,228.393L105.914,228.393z M106.314,224.399
		c-0.027,0.381,0.547,0.418,0.574,0.044c0.029-0.384,0.056-0.768,0.081-1.152c0.023-0.322-0.448-0.442-0.564-0.095
		c-0.005,0.021-0.008,0.037-0.01,0.059C106.371,223.637,106.343,224.018,106.314,224.399L106.314,224.399z M106.514,220.395
		c0,0.065,0.017,0.123,0.054,0.173c0.158,0.226,0.521,0.109,0.521-0.162c0.008-0.386,0.011-0.771,0.011-1.156
		c0-0.378-0.575-0.379-0.575,0.001C106.526,219.632,106.522,220.013,106.514,220.395L106.514,220.395z M107.978,217.441
		c-0.381-0.054-0.455,0.516-0.086,0.569c0.382,0.056,0.763,0.11,1.146,0.159c0.343,0.049,0.472-0.48,0.087-0.569
		C108.745,217.544,108.36,217.498,107.978,217.441L107.978,217.441z M111.952,217.851c-0.112-0.008-0.232,0.066-0.275,0.169
		c-0.081,0.193,0.042,0.391,0.249,0.406c0.385,0.018,0.778,0.029,1.163,0.026c0.377,0,0.379-0.575-0.001-0.575
		C112.709,217.877,112.33,217.869,111.952,217.851L111.952,217.851z M115.895,217.637c-0.117,0.027-0.199,0.105-0.226,0.222
		c-0.049,0.195,0.143,0.387,0.337,0.343c0.375-0.067,0.791-0.179,1.151-0.305c0.354-0.136,0.177-0.656-0.19-0.543
		C116.676,217.47,116.205,217.581,115.895,217.637L115.895,217.637z M119.427,216.401c-0.18,0.115-0.209,0.439,0.075,0.527
		l0.022,0.005l0.131,0.708c0.087,0.375,0.623,0.268,0.565-0.106c-0.056-0.298-0.131-0.628-0.17-0.924
		c-0.004-0.029-0.012-0.053-0.028-0.085l-0.469,0.239l0.469-0.239l-0.16-0.313L119.427,216.401L119.427,216.401z M119.518,216.931
		l0.003-0.013L119.518,216.931L119.518,216.931z M120.77,220.353c-0.068-0.293-0.463-0.307-0.555-0.033
		c-0.015,0.044-0.02,0.1-0.009,0.148c0.076,0.376,0.154,0.753,0.234,1.128c0.084,0.362,0.622,0.264,0.564-0.112
		C120.927,221.107,120.847,220.73,120.77,220.353L120.77,220.353z M121.619,224.281c-0.085-0.37-0.646-0.24-0.561,0.129
		c0.086,0.374,0.173,0.749,0.262,1.123c0.084,0.365,0.646,0.24,0.56-0.133L121.619,224.281L121.619,224.281z M122.568,228.186
		c-0.072-0.312-0.566-0.281-0.566,0.081c0.002,0.024,0.004,0.039,0.009,0.063c0.096,0.372,0.193,0.744,0.292,1.115
		c0.113,0.366,0.641,0.222,0.556-0.148C122.761,228.927,122.663,228.557,122.568,228.186L122.568,228.186z M123.625,232.063
		c-0.106-0.344-0.615-0.229-0.56,0.13c0.085,0.365,0.223,0.773,0.332,1.136c0.113,0.368,0.661,0.192,0.551-0.164
		C123.839,232.798,123.731,232.431,123.625,232.063L123.625,232.063z M124.8,235.905c-0.097-0.315-0.587-0.235-0.56,0.115
		c0.003,0.023,0.006,0.039,0.013,0.062c0.118,0.366,0.238,0.732,0.36,1.096c0.094,0.306,0.587,0.241,0.558-0.125
		c-0.003-0.022-0.007-0.038-0.013-0.059C125.037,236.632,124.917,236.268,124.8,235.905L124.8,235.905z M126.103,239.703
		c-0.134-0.348-0.655-0.174-0.542,0.191c0.13,0.363,0.264,0.728,0.402,1.088c0.138,0.358,0.673,0.146,0.538-0.203
		C126.366,240.422,126.233,240.063,126.103,239.703L126.103,239.703z M127.546,243.45c-0.024-0.062-0.073-0.113-0.131-0.145
		c-0.243-0.121-0.498,0.11-0.401,0.363c0.124,0.346,0.298,0.723,0.442,1.066c0.114,0.298,0.603,0.194,0.548-0.163
		c-0.006-0.024-0.01-0.038-0.018-0.061C127.842,244.17,127.668,243.793,127.546,243.45L127.546,243.45z M129.141,247.133
		c-0.168-0.336-0.661-0.118-0.526,0.232c0.159,0.353,0.326,0.705,0.493,1.054c0.159,0.317,0.64,0.134,0.531-0.219
		C129.494,247.851,129.302,247.482,129.141,247.133L129.141,247.133z M130.903,250.738c-0.15-0.3-0.636-0.129-0.527,0.227
		l0.017,0.039c0.178,0.341,0.357,0.682,0.54,1.021c0.193,0.33,0.676,0.067,0.506-0.273
		C131.258,251.415,131.079,251.077,130.903,250.738L130.903,250.738z M132.845,254.248c-0.189-0.325-0.688-0.038-0.495,0.292
		c0.195,0.332,0.394,0.663,0.595,0.991c0.161,0.276,0.624,0.104,0.516-0.247c-0.008-0.021-0.014-0.035-0.026-0.054
		C133.236,254.904,133.038,254.577,132.845,254.248L132.845,254.248z M134.98,257.641c-0.221-0.303-0.672-0.013-0.48,0.317
		l0.194,0.287c-0.073,0.056-0.145,0.115-0.215,0.175c-0.251,0.226,0.011,0.627,0.327,0.469c0.017-0.011,0.033-0.02,0.049-0.035
		c0.201-0.174,0.413-0.316,0.633-0.467C135.318,258.138,135.148,257.891,134.98,257.641L134.98,257.641z M134.575,260.948
		c-0.247-0.275-0.673,0.05-0.441,0.369c0.294,0.327,0.549,0.557,0.904,0.818c0.305,0.222,0.645-0.242,0.337-0.466
		C135.086,261.461,134.806,261.22,134.575,260.948L134.575,260.948z M134.748,264.205c0.037-0.064,0.052-0.14,0.033-0.214
		c-0.057-0.25-0.397-0.303-0.526-0.082c-0.202,0.337-0.389,0.678-0.564,1.029c-0.168,0.336,0.345,0.597,0.516,0.255
		C134.375,264.855,134.554,264.528,134.748,264.205L134.748,264.205z M133.209,267.827c0.1-0.327-0.407-0.539-0.551-0.166
		c-0.111,0.371-0.198,0.77-0.278,1.15c-0.079,0.34,0.446,0.503,0.559,0.136C133.03,268.57,133.105,268.203,133.209,267.827
		L133.209,267.827z M132.575,271.736c0.027-0.372-0.546-0.42-0.574-0.036c-0.02,0.39-0.039,0.773-0.045,1.163
		c0,0.368,0.545,0.399,0.575,0.016C132.537,272.496,132.555,272.12,132.575,271.736L132.575,271.736z M132.634,275.716
		c-0.024-0.339-0.547-0.363-0.574,0.016c0.011,0.37,0.074,0.814,0.118,1.188c0.011,0.078,0.045,0.141,0.108,0.192
		c0.198,0.159,0.499-0.01,0.463-0.26C132.703,276.475,132.665,276.094,132.634,275.716L132.634,275.716z M132.99,279.74
		c0-0.311-0.479-0.409-0.57-0.045c-0.003,0.022-0.005,0.038-0.005,0.062c0.011,0.382,0.02,0.763,0.026,1.145
		c0,0.178,0.173,0.318,0.349,0.277c0.134-0.031,0.226-0.144,0.226-0.284C133.01,280.51,133.001,280.125,132.99,279.74L132.99,279.74
		z M132.986,283.784c0-0.381-0.548-0.401-0.575-0.02c-0.011,0.381-0.03,0.763-0.049,1.143c-0.024,0.337,0.486,0.433,0.569,0.073
		C132.977,284.625,132.976,284.151,132.986,283.784L132.986,283.784z M132.714,287.82c0.026-0.366-0.488-0.437-0.568-0.089
		c-0.058,0.376-0.084,0.786-0.132,1.168c-0.049,0.344,0.481,0.467,0.568,0.09C132.637,288.639,132.693,288.173,132.714,287.82
		L132.714,287.82z M132.164,291.829c0.014-0.093-0.014-0.193-0.083-0.256c-0.162-0.162-0.449-0.067-0.484,0.157
		c-0.064,0.376-0.134,0.751-0.207,1.126c-0.074,0.322,0.418,0.503,0.554,0.15C132.039,292.656,132.102,292.193,132.164,291.829
		L132.164,291.829z M131.332,295.789c0.084-0.362-0.444-0.511-0.557-0.145c-0.093,0.372-0.188,0.743-0.288,1.114
		c-0.1,0.326,0.408,0.536,0.55,0.167C131.147,296.558,131.239,296.162,131.332,295.789L131.332,295.789z M130.219,299.679
		c0.099-0.321-0.332-0.533-0.523-0.233c-0.009,0.019-0.018,0.034-0.024,0.055c-0.117,0.363-0.239,0.725-0.364,1.085
		c-0.113,0.367,0.407,0.543,0.543,0.189C129.977,300.411,130.101,300.046,130.219,299.679L130.219,299.679z M128.835,303.48
		c0.055-0.144-0.007-0.311-0.15-0.371c-0.145-0.067-0.326,0.007-0.383,0.155c-0.143,0.354-0.29,0.706-0.44,1.057
		c-0.135,0.352,0.357,0.571,0.527,0.231C128.539,304.196,128.689,303.84,128.835,303.48z"/>
	<g>
		<path style="fill-rule:evenodd;clip-rule:evenodd;fill:#FCC572;" d="M111.531,70.207c-14.75-0.004-29.498-0.37-43.582-1.1
			c0,0-8.15,3.638-24.449,10.913c7.561,46.34,15.687,89.817,17.361,113.365c17.79,0.497,34.275,0.711,50.671,0.69
			c16.396,0.021,32.881-0.193,50.67-0.69c1.674-23.548,9.8-67.025,17.361-113.365c-16.299-7.275-24.449-10.913-24.449-10.913
			C141.029,69.836,126.281,70.203,111.531,70.207z"/>
		<path style="fill-rule:evenodd;clip-rule:evenodd;fill:#FCC572;" d="M161.86,190.41c-1.643-8.364-2.613-32.499,0.77-54.486
			c0.755-4.905,16.916-44.78,11.798-48.264c-3.102-2.112-6.804-0.965-1.751-5.459c-41.663,0.81-80.159,0.573-115.488-0.71
			c-3.252-0.118,1.749,3.137-1.449,3.001c0.161,0.861-7.899-1.669-7.728-0.826c4.258,20.888,11.8,36.564,14.218,51.961
			c1.561,9.941,3.319,19.28,3.237,27.689c-0.103,10.692-2.301,19.884-2.071,26.91C114.258,187.891,151.391,189.979,161.86,190.41z"
			/>
		<path style="fill-rule:evenodd;clip-rule:evenodd;fill:#FCC572;" d="M152.576,71.535c13.268,5.8,19.902,8.7,19.902,8.7
			c-22.822,0.052-63.307-0.232-121.455-0.855c10.208-4.843,15.312-7.265,15.312-7.265C99.594,72.341,128.341,72.148,152.576,71.535z
			"/>
	</g>
	<path style="fill-rule:evenodd;clip-rule:evenodd;fill:#E8A251;" d="M43.5,80.019c8.954,32.271,14.741,70.06,17.361,113.365
		C55.572,158.097,49.785,120.309,43.5,80.019z"/>
	<path style="fill-rule:evenodd;clip-rule:evenodd;fill:#E8A251;" d="M59.882,183.108c-3.653-22.128-5.637-36.964-7.405-42.421
		c5.511,3.471,9.998,9.316,11.576,18.025C65.674,167.654,64.072,175.263,59.882,183.108z"/>
	<path style="fill-rule:evenodd;clip-rule:evenodd;fill:#FFA575;" d="M55.999,151.904c0,0,0.123,0.259-1.031-2.182
		c0,0-1.154-2.944-0.671-6.006c-0.555-2.439-1.333-3.761-2.506-4.116c-0.893-0.27-2.804-0.113-2.522,1.422
		c0.247,1.345,0.334,3.226-0.029,4.074c-0.047,1.187,0.662,3.305-0.499,5.287c-0.368,1.387-1.987,2.582-2.572,3.126
		c-0.473,0.44-0.367,1.236,0.468,1.147c-0.277,0.459,1.465,0.364,1.181,0.907c0.866,9.179,4.582,14.021,11.149,14.525
		c-0.048-5.652-1.037-11.712-3.225-18.049C55.838,151.993,55.925,151.947,55.999,151.904z"/>
	<path style="fill-rule:evenodd;clip-rule:evenodd;fill:#EB854D;" d="M59.189,171.03c-2.482-8.176-3.277-13.901-2.382-17.174
		C58.261,159.038,59.055,164.763,59.189,171.03z"/>
	<path style="fill-rule:evenodd;clip-rule:evenodd;fill:#FFA97A;" d="M57.842,171.731c-3.552-0.603-6.361-1.26-8.425-1.971
		c-1.68-3.266-1-3.615,1.144-5.026c3.074,0.96,3.358,1.776,5.395,2.455c3.843,0.355,7.035,0.219,7.572,2.096
		c-0.257,1.201,0.315,1.034-0.747,2.139C58.817,171.331,57.842,171.731,57.842,171.731z"/>
	<path style="fill-rule:evenodd;clip-rule:evenodd;fill:#FFB187;" d="M56.203,167.173c-3.81,0.106-5.598-0.891-7.912-1.19
		c-1.418-1.493-1.922-2.615-0.116-4.452c3.419,0.347,5.654,0.866,7.931,1.138c4.039-0.411,6.741-0.933,7.814,0.836
		c0.479,3.252-1.342,2.747-3.665,2.998C57.768,166.771,56.203,167.173,56.203,167.173z"/>
	<path style="fill-rule:evenodd;clip-rule:evenodd;fill:#FFB48C;" d="M56.609,161.661c-3.791,1.323-6.307,0.943-8.772,1.395
		c-2.044-1.353-3.167-2.396-2.169-4.749c3.599-0.761,5.02-0.322,7.435-0.789c1.743-0.759,6.133-2.351,8.133-1.393
		c0.832,0.399,1.658,1.097,1.058,2.707C58.483,160.816,56.609,161.661,56.609,161.661z"/>
	<path style="fill-rule:evenodd;clip-rule:evenodd;fill:#FFB891;" d="M55.159,156.155c-3.928,1.416-7.173,2.373-9.733,2.869
		c-2.149-1.386-2.492-4.135-0.127-5.811c3.847-0.584,3.938-0.725,6.446-1.236c4.247-1.658,6.374-2.643,8.343-1.243
		c0.39,0.709,0.847,1.482,0.741,2.393C56.89,155.23,55.159,156.155,55.159,156.155z"/>
	<path style="fill-rule:evenodd;clip-rule:evenodd;fill:#FFC3A3;" d="M57.23,151.682c0.232,0.877,0.616,1.545,1.15,2.003
		c1.132-0.339,1.982-0.7,2.551-1.085c-0.123-1.112-0.465-1.833-1.027-2.161C58.549,150.877,57.658,151.291,57.23,151.682z"/>
	<path style="fill-rule:evenodd;clip-rule:evenodd;fill:#FFB187;" d="M45.525,158.677c3.891-0.208,4.697-1.029,7.049-1.623
		c-0.619-0.684-1.399-2.071-1.53-2.778c-2.702,0.904-4.933,1.464-6.694,1.679C44.108,156.991,44.499,157.899,45.525,158.677z"/>
	<path style="fill-rule:evenodd;clip-rule:evenodd;fill:#FFAB7D;" d="M47.721,162.57c3.563,0.023,5.935-0.314,7.115-1.01
		c-0.376-0.792-0.59-1.569-0.64-2.334c-4.566,0.639-7.313,0.951-8.241,0.936C46.127,161.05,46.715,161.853,47.721,162.57z"/>
	<path style="fill-rule:evenodd;clip-rule:evenodd;fill:#FFA473;" d="M49.229,165.818c3.461,0.851,5.846,1.075,7.155,0.673
		c-0.182-0.857-0.209-1.664-0.08-2.419c-4.589-0.441-7.333-0.776-8.232-1.007C48.032,163.969,48.418,164.886,49.229,165.818z"/>
	<path style="fill-rule:evenodd;clip-rule:evenodd;fill:#FCA374;" d="M50.124,169.712c3.484,1.252,5.885,1.755,7.204,1.509
		c-0.183-0.873-0.209-1.677-0.079-2.412c-4.62-0.977-7.383-1.633-8.288-1.967C48.92,167.734,49.308,168.691,50.124,169.712z"/>
	<path style="fill-rule:evenodd;clip-rule:evenodd;fill:#FC9D6A;" d="M51.465,152.003c1.999-0.725,2.998-1.088,2.998-1.088
		c-0.571-2.046-0.791-4.221-0.658-6.526c-0.224-2.986-0.973-4.648-3.092-4.413c0.797,3.567,0.196,3.173-0.52,3.463
		c-0.356,0.144,0.898,0.988,0.902,1.433c0.163,1.109-0.15,2.679-0.221,4.688C50.874,149.558,51.31,150.366,51.465,152.003z"/>
	<path style="fill-rule:evenodd;clip-rule:evenodd;fill:#FFD4BD;" d="M57.23,151.682c0.867,0.63,1.25,1.298,1.15,2.003
		C57.832,153.203,57.448,152.535,57.23,151.682z"/>
	<path style="fill-rule:evenodd;clip-rule:evenodd;fill:#FFC3A3;" d="M59.096,157.533c0.16,0.882,0.485,1.547,0.976,1.995
		c1.146-0.379,2.016-0.772,2.61-1.18c-0.033-1.123-0.314-1.843-0.843-2.159C60.465,156.675,59.55,157.123,59.096,157.533z"/>
	<path style="fill-rule:evenodd;clip-rule:evenodd;fill:#FFD4BD;" d="M59.096,157.533c0.807,0.611,1.132,1.276,0.976,1.995
		C59.569,159.056,59.243,158.391,59.096,157.533z"/>
	<path style="fill-rule:evenodd;clip-rule:evenodd;fill:#FFBF9C;" d="M60.535,164.205c-0.093,0.797,0.012,1.452,0.316,1.964
		c1.081-0.025,1.929-0.135,2.544-0.33c0.265-0.971,0.212-1.661-0.158-2.069C61.932,163.827,61.031,163.972,60.535,164.205z"/>
	<path style="fill-rule:evenodd;clip-rule:evenodd;fill:#FFCFB5;" d="M60.535,164.205c0.531,0.734,0.637,1.389,0.316,1.964
		C60.543,165.633,60.437,164.979,60.535,164.205z"/>
	<path style="fill-rule:evenodd;clip-rule:evenodd;fill:#FFB891;" d="M60.575,169.361c-0.223,0.698-0.243,1.303-0.06,1.814
		c0.972,0.166,1.751,0.215,2.337,0.148c0.407-0.824,0.48-1.451,0.219-1.882C61.892,169.266,61.06,169.239,60.575,169.361z"/>
	<path style="fill-rule:evenodd;clip-rule:evenodd;fill:#FFC8AB;" d="M60.575,169.361c0.348,0.751,0.328,1.355-0.06,1.814
		C60.333,170.642,60.353,170.037,60.575,169.361z"/>
	<path style="fill-rule:evenodd;clip-rule:evenodd;fill:#FFC3A3;" d="M50.872,142.925c-0.438,0.215-0.85,0.2-1.236-0.047
		c-0.296-1.145-0.475-2.056-0.539-2.734c0.49-0.422,0.907-0.467,1.252-0.135C50.691,141.395,50.865,142.367,50.872,142.925z"/>
	<path style="fill-rule:evenodd;clip-rule:evenodd;fill:#FFD4BD;" d="M50.872,142.925c-0.581-0.454-0.993-0.469-1.236-0.047
		C50.037,143.126,50.449,143.141,50.872,142.925z"/>
	<path style="fill-rule:evenodd;clip-rule:evenodd;fill:#F29461;" d="M47.653,158.321c1.636-0.438,3.058-0.843,4.265-1.213
		c1.201-0.369,2.19-0.704,2.965-1.006c0.407-0.197,0.847-0.419,1.32-0.666c1.074-0.559,2-1.024,3.117-1.504
		c-1.331,0.729-2.983,1.959-4.26,2.577C53.367,157.207,49.311,158.415,47.653,158.321z"/>
	<path style="fill-rule:evenodd;clip-rule:evenodd;fill:#F29461;" d="M50.773,162.616c1.383-0.144,2.526-0.296,3.427-0.456
		c0.892-0.158,1.54-0.322,1.943-0.493c0.501-0.205,0.977-0.408,1.468-0.64c0.861-0.406,1.415-0.541,2.651-1.16
		c-0.837,0.431-1.67,1.099-2.268,1.381c-0.607,0.287-1.239,0.606-1.62,0.75c-1.729,0.727-4.388,0.611-6.249,0.805L50.773,162.616z"
		/>
	<path style="fill-rule:evenodd;clip-rule:evenodd;fill:#ED8B56;" d="M54.133,166.973c1.11,0.1,2.062,0.059,2.857-0.121
		c0.623-0.146,1.341-0.246,1.977-0.335c0.502-0.07,1.622-0.219,2.389-0.12c-0.77,0.068-1.651,0.309-2.35,0.406
		c-0.694,0.096-1.346,0.207-1.956,0.33c-0.824,0.187-1.805,0.229-2.943,0.127c-1.133-0.102-2.704-0.564-4.15-0.952
		C50.584,166.2,53.096,166.88,54.133,166.973z"/>
	<path style="fill-rule:evenodd;clip-rule:evenodd;fill:#ED8B56;" d="M53.872,170.827c1.212,0.276,2.433,0.512,3.723,0.716
		c0.438-0.056,0.865-0.096,1.246-0.123c0.39-0.028,1.102-0.135,1.459,0.014c-1.468,0.019-1.875,0.316-2.551,0.352
		c-0.815,0.043-1.887-0.21-3.941-0.679c-1.234-0.281-2.683-0.828-3.962-1.203C50.435,169.8,53.059,170.641,53.872,170.827z"/>
	<path style="fill-rule:evenodd;clip-rule:evenodd;fill:#EB854D;" d="M52.039,139.692c0.859,0.354,1.234,0.81,1.634,1.606
		c0.395,0.786,0.628,1.769,0.699,2.949l0,0.021c-0.098,1.041-0.052,2.085,0.139,3.131c0.191,1.048,0.527,2.099,1.007,3.151
		l-0.262,0.119c-0.491-1.076-0.834-2.149-1.029-3.219c-0.195-1.069-0.243-2.136-0.143-3.2c-0.069-1.132-0.292-2.074-0.669-2.823
		C52.903,140.407,52.599,140.136,52.039,139.692z"/>
	<path style="fill-rule:evenodd;clip-rule:evenodd;fill:#E8A251;" d="M161.77,184.55c3.654-22.128,6.364-35.92,8.131-41.377
		c-5.511,3.472-9.997,9.316-11.576,18.025c-0.827,4.565-0.172,10.096,0.081,16.101C160.648,182.133,161.77,184.55,161.77,184.55z"/>
	<path style="fill-rule:evenodd;clip-rule:evenodd;fill:#E8A251;" d="M179.562,80.019c-11.312,51.582-17.099,89.37-17.36,113.365
		C168.173,148.603,173.96,110.815,179.562,80.019z"/>
	<path style="fill-rule:evenodd;clip-rule:evenodd;fill:#FFA575;" d="M166.38,154.389c0,0-0.123,0.259,1.03-2.182
		c0,0,1.154-2.944,0.671-6.006c0.555-2.439,1.333-3.761,2.506-4.116c0.893-0.27,2.804-0.113,2.522,1.422
		c-0.247,1.345-0.334,3.226,0.029,4.074c0.047,1.187-0.662,3.305,0.499,5.287c0.368,1.387,1.988,2.582,2.572,3.126
		c0.473,0.44,0.367,1.236-0.468,1.147c0.277,0.459-1.465,0.364-1.181,0.907c-0.866,9.179-4.582,14.021-11.15,14.525
		c0.048-5.652,1.037-11.712,3.225-18.048C166.54,154.479,166.453,154.433,166.38,154.389z"/>
	<path style="fill-rule:evenodd;clip-rule:evenodd;fill:#EB854D;" d="M163.189,173.515c2.482-8.176,3.276-13.901,2.382-17.174
		C164.117,161.523,163.323,167.248,163.189,173.515z"/>
	<path style="fill-rule:evenodd;clip-rule:evenodd;fill:#FFA97A;" d="M164.536,174.217c3.553-0.602,6.361-1.26,8.425-1.971
		c1.68-3.266,1-3.615-1.144-5.026c-3.074,0.96-3.359,1.776-5.395,2.455c-3.843,0.355-7.035,0.219-7.572,2.096
		c0.257,1.201-0.315,1.034,0.746,2.139C163.561,173.816,164.536,174.217,164.536,174.217z"/>
	<path style="fill-rule:evenodd;clip-rule:evenodd;fill:#FFB187;" d="M166.176,169.659c3.81,0.106,5.598-0.89,7.912-1.19
		c1.418-1.493,1.922-2.615,0.116-4.452c-3.418,0.347-5.654,0.866-7.931,1.138c-4.039-0.411-6.741-0.933-7.814,0.836
		c-0.479,3.252,1.342,2.747,3.665,2.997C164.611,169.256,166.176,169.659,166.176,169.659z"/>
	<path style="fill-rule:evenodd;clip-rule:evenodd;fill:#FFB48C;" d="M165.769,164.147c3.791,1.323,6.307,0.943,8.772,1.395
		c2.044-1.353,3.167-2.396,2.169-4.749c-3.599-0.761-5.02-0.322-7.435-0.79c-1.743-0.759-6.133-2.351-8.133-1.394
		c-0.832,0.399-1.658,1.097-1.058,2.707C163.895,163.301,165.769,164.147,165.769,164.147z"/>
	<path style="fill-rule:evenodd;clip-rule:evenodd;fill:#FFB891;" d="M167.219,158.64c3.928,1.417,7.173,2.373,9.733,2.87
		c2.149-1.385,2.492-4.135,0.127-5.811c-3.847-0.584-3.938-0.725-6.446-1.236c-4.247-1.658-6.374-2.643-8.343-1.243
		c-0.39,0.709-0.847,1.482-0.741,2.392C165.488,157.715,167.219,158.64,167.219,158.64z"/>
	<path style="fill-rule:evenodd;clip-rule:evenodd;fill:#FFC3A3;" d="M165.148,154.167c-0.232,0.877-0.615,1.545-1.15,2.003
		c-1.132-0.339-1.982-0.7-2.551-1.085c0.123-1.112,0.465-1.833,1.027-2.161C163.829,153.362,164.72,153.776,165.148,154.167z"/>
	<path style="fill-rule:evenodd;clip-rule:evenodd;fill:#FFB187;" d="M176.853,161.162c-3.891-0.208-4.697-1.029-7.049-1.623
		c0.619-0.684,1.399-2.072,1.53-2.778c2.702,0.904,4.933,1.464,6.694,1.679C178.27,159.476,177.879,160.384,176.853,161.162z"/>
	<path style="fill-rule:evenodd;clip-rule:evenodd;fill:#FFAB7D;" d="M174.657,165.056c-3.564,0.022-5.936-0.314-7.115-1.01
		c0.376-0.792,0.59-1.57,0.64-2.334c4.566,0.638,7.313,0.951,8.241,0.936C176.251,163.535,175.663,164.338,174.657,165.056z"/>
	<path style="fill-rule:evenodd;clip-rule:evenodd;fill:#FFA473;" d="M173.149,168.304c-3.461,0.851-5.846,1.075-7.155,0.673
		c0.182-0.858,0.208-1.664,0.08-2.419c4.589-0.441,7.333-0.777,8.232-1.007C174.346,166.454,173.96,167.372,173.149,168.304z"/>
	<path style="fill-rule:evenodd;clip-rule:evenodd;fill:#FCA374;" d="M172.254,172.197c-3.484,1.252-5.885,1.755-7.204,1.509
		c0.183-0.873,0.21-1.677,0.079-2.412c4.62-0.977,7.383-1.633,8.288-1.967C173.458,170.219,173.07,171.176,172.254,172.197z"/>
	<path style="fill-rule:evenodd;clip-rule:evenodd;fill:#FC9D6A;" d="M170.913,154.488c-1.999-0.725-2.999-1.088-2.999-1.088
		c0.572-2.046,0.791-4.221,0.658-6.526c0.224-2.986,0.974-4.648,3.092-4.413c-0.797,3.567-0.196,3.173,0.519,3.463
		c0.357,0.144-0.897,0.988-0.901,1.433c-0.163,1.109,0.15,2.678,0.221,4.688C171.504,152.043,171.068,152.851,170.913,154.488z"/>
	<path style="fill-rule:evenodd;clip-rule:evenodd;fill:#FFD4BD;" d="M165.148,154.167c-0.866,0.63-1.25,1.298-1.15,2.003
		C164.547,155.688,164.93,155.02,165.148,154.167z"/>
	<path style="fill-rule:evenodd;clip-rule:evenodd;fill:#FFC3A3;" d="M163.282,160.018c-0.16,0.882-0.485,1.547-0.977,1.995
		c-1.146-0.379-2.016-0.772-2.61-1.18c0.033-1.123,0.314-1.843,0.842-2.159C161.913,159.16,162.828,159.608,163.282,160.018z"/>
	<path style="fill-rule:evenodd;clip-rule:evenodd;fill:#FFD4BD;" d="M163.282,160.018c-0.806,0.611-1.132,1.276-0.977,1.995
		C162.81,161.541,163.135,160.876,163.282,160.018z"/>
	<path style="fill-rule:evenodd;clip-rule:evenodd;fill:#FFBF9C;" d="M161.843,166.69c0.093,0.797-0.012,1.452-0.316,1.964
		c-1.081-0.025-1.929-0.135-2.544-0.33c-0.265-0.971-0.213-1.661,0.158-2.069C160.447,166.313,161.347,166.457,161.843,166.69z"/>
	<path style="fill-rule:evenodd;clip-rule:evenodd;fill:#FFCFB5;" d="M161.843,166.69c-0.532,0.734-0.637,1.389-0.316,1.964
		C161.836,168.118,161.941,167.464,161.843,166.69z"/>
	<path style="fill-rule:evenodd;clip-rule:evenodd;fill:#FFB891;" d="M161.803,171.846c0.223,0.698,0.243,1.303,0.06,1.814
		c-0.973,0.166-1.751,0.215-2.337,0.148c-0.407-0.824-0.48-1.451-0.219-1.882C160.486,171.752,161.318,171.725,161.803,171.846z"/>
	<path style="fill-rule:evenodd;clip-rule:evenodd;fill:#FFC8AB;" d="M161.803,171.846c-0.348,0.751-0.328,1.355,0.06,1.814
		C162.046,173.127,162.026,172.522,161.803,171.846z"/>
	<path style="fill-rule:evenodd;clip-rule:evenodd;fill:#FFC3A3;" d="M171.506,145.41c0.438,0.215,0.85,0.199,1.235-0.047
		c0.296-1.145,0.475-2.056,0.539-2.734c-0.49-0.422-0.907-0.467-1.251-0.135C171.687,143.881,171.513,144.852,171.506,145.41z"/>
	<path style="fill-rule:evenodd;clip-rule:evenodd;fill:#FFD4BD;" d="M171.506,145.41c0.581-0.454,0.993-0.469,1.235-0.047
		C172.341,145.611,171.929,145.627,171.506,145.41z"/>
	<path style="fill-rule:evenodd;clip-rule:evenodd;fill:#F29461;" d="M174.726,160.806c-1.636-0.438-3.058-0.843-4.266-1.213
		c-1.201-0.369-2.189-0.704-2.965-1.006c-0.407-0.197-0.847-0.419-1.32-0.666c-1.074-0.56-2-1.024-3.117-1.504
		c1.331,0.729,2.983,1.959,4.26,2.577C169.011,159.692,173.067,160.9,174.726,160.806z"/>
	<path style="fill-rule:evenodd;clip-rule:evenodd;fill:#F29461;" d="M171.605,165.101c-1.384-0.144-2.526-0.296-3.427-0.456
		c-0.892-0.158-1.54-0.322-1.943-0.493c-0.502-0.205-0.977-0.408-1.468-0.64c-0.861-0.406-1.415-0.541-2.651-1.16
		c0.837,0.431,1.67,1.099,2.268,1.381c0.607,0.286,1.239,0.606,1.62,0.75c1.729,0.727,4.388,0.612,6.248,0.806L171.605,165.101z"/>
	<path style="fill-rule:evenodd;clip-rule:evenodd;fill:#ED8B56;" d="M168.246,169.458c-1.11,0.1-2.062,0.059-2.857-0.121
		c-0.623-0.146-1.341-0.246-1.977-0.335c-0.502-0.07-1.622-0.219-2.389-0.121c0.77,0.068,1.651,0.309,2.35,0.407
		c0.694,0.096,1.346,0.207,1.956,0.33c0.824,0.187,1.805,0.229,2.943,0.127c1.133-0.102,2.704-0.564,4.15-0.952
		C171.794,168.686,169.283,169.365,168.246,169.458z"/>
	<path style="fill-rule:evenodd;clip-rule:evenodd;fill:#ED8B56;" d="M168.506,173.312c-1.212,0.277-2.433,0.512-3.723,0.716
		c-0.438-0.056-0.865-0.096-1.246-0.123c-0.39-0.028-1.102-0.136-1.459,0.014c1.468,0.019,1.875,0.316,2.55,0.352
		c0.815,0.043,1.887-0.21,3.941-0.679c1.234-0.281,2.683-0.828,3.962-1.203C171.943,172.286,169.319,173.126,168.506,173.312z"/>
	<path style="fill-rule:evenodd;clip-rule:evenodd;fill:#EB854D;" d="M170.339,142.177c-0.859,0.354-1.234,0.81-1.634,1.606
		c-0.395,0.786-0.628,1.769-0.699,2.949l0,0.021c0.098,1.041,0.052,2.085-0.139,3.131c-0.191,1.048-0.527,2.099-1.007,3.151
		l0.262,0.119c0.491-1.076,0.834-2.149,1.029-3.219c0.195-1.069,0.242-2.136,0.143-3.2c0.069-1.133,0.293-2.074,0.669-2.823
		C169.475,142.892,169.779,142.621,170.339,142.177z"/>
	<path style="fill-rule:evenodd;clip-rule:evenodd;fill:#EDB863;" d="M92.456,18.936c-10.103-0.002-20.204-0.182-29.85-0.542
		c0,0-4.723,2.711-12.086,6.425C55.699,47.64,56.605,68,57.751,79.597c12.184,0.245,23.475,0.35,34.705,0.34
		c11.23,0.01,18.668-0.403,30.853-0.648c1.146-11.597-2.79-31.781,2.389-54.601c2.946-1.309,5.54-6.162,5.54-6.162
		C121.591,18.885,102.559,18.934,92.456,18.936z"/>
	<path style="fill-rule:evenodd;clip-rule:evenodd;fill:#FAC069;" d="M118.201,78.132c-1.125-4.119-1.79-16.005,0.527-26.833
		c0.517-2.416,3.493-22.052-0.012-23.768c-2.125-1.04-4.661-0.475-1.199-2.688c-28.536,0.399-32.791,0.689-56.988,0.058
		c-2.227-0.058,1.198,1.545-0.993,1.478c0.11,0.424-5.41-0.822-5.293-0.407c5.212,18.383,4.417,33.907,5.244,52.07
		C94.324,76.892,111.031,77.919,118.201,78.132z"/>
	<path style="fill-rule:evenodd;clip-rule:evenodd;fill:#DEA44D;" d="M129.662,20.741c2.165,1.435-3.109,2.682-3.109,2.682
		c-19.202,0.769-41.897,0.1-71.722-0.816c2.49-1.321,3.735-1.982,3.735-1.982C84.715,21.095,111.44,21.178,129.662,20.741z"/>
	<path style="fill-rule:evenodd;clip-rule:evenodd;fill:#DEA652;" d="M124.581,24.753c-2.601,14.598-2.184,31.251-1.272,54.535
		c3.285-4.518,5.172-6.2,5.172-6.2c1.437-37.479,2.756-54.563,2.756-54.563C129.95,21.096,126.987,23.216,124.581,24.753z"/>
	<path style="fill-rule:evenodd;clip-rule:evenodd;fill:#EDB863;" d="M147.965,42.149c-5.554-0.001-11.106-0.114-16.41-0.34
		c0,0-2.596,1.702-6.644,4.034c2.847,14.328,3.345,27.111,3.975,34.392c6.698,0.154,12.905,0.22,19.078,0.214
		c6.173,0.006,12.38-0.06,19.078-0.214c0.63-7.281,0.319-19.899,3.166-34.227c-3.29-1.482-5.835-4.198-5.835-4.198
		C159.071,42.035,153.519,42.148,147.965,42.149z"/>
	<path style="fill-rule:evenodd;clip-rule:evenodd;fill:#FAC069;" d="M166.914,79.316c-0.618-2.586-0.984-10.049,0.29-16.847
		c0.284-1.517,1.92-13.846-0.007-14.923c-1.168-0.653-2.562-0.298-0.659-1.688c-15.687,0.25-22.823,0.432-36.124,0.036
		c-1.224-0.037,0.659,0.97-0.546,0.928c0.061,0.266-2.974-0.516-2.909-0.256c2.865,11.542,2.428,21.288,2.883,32.692
		C148.992,78.537,162.973,79.182,166.914,79.316z"/>
	<path style="fill-rule:evenodd;clip-rule:evenodd;fill:#DEA44D;" d="M165.923,43.241c1.191,0.901,1.786,1.352,1.786,1.352
		c-10.556,0.483-24.031,0.437-40.427-0.138c1.369-0.83,2.053-1.244,2.053-1.244C143.71,43.505,155.906,43.515,165.923,43.241z"/>
	<path style="fill-rule:evenodd;clip-rule:evenodd;fill:#CC943F;" d="M126.553,23.423c0.69-0.486,1.767-1.351,3.23-2.597
		c0,0-0.354,5.964-1.06,17.893c0,0-0.919,1.051-2.758,3.152C126.053,39.157,126.249,33.007,126.553,23.423z"/>
	<path style="fill-rule:evenodd;clip-rule:evenodd;fill:#FFE5BA;" d="M59.651,81.578c36.064,5.105,71.18,5.358,105.347,0.761
		C133.644,82.992,98.528,82.739,59.651,81.578z"/>
	<path style="fill-rule:evenodd;clip-rule:evenodd;fill:#FFCC7F;" d="M69.376,135.77c5.017,14.878,5.017,31.864,1.05,41.502
		c24.204-23.052,15.468-12.778,31.942-23.785c4.975-3.324-17.258,18.219-28.527,30.089c39.575-1.751,73.547-1.313,73.547-1.313
		c28.589-71.282-14.895,9.053,4.401-45.925c7.005-19.957,13.015-37.978,14.511-42.068c-23.36,7.081-7.687-2.901-4.99-4.991
		c-50.8,1.124-82.846,0.949-96.137-0.525c-1.431,13.641-1.607,29.313,2.627,41.764C107.758,111.063,87.518,124.232,69.376,135.77z"
		/>
	<path style="fill-rule:evenodd;clip-rule:evenodd;fill:#FFC978;" d="M110.489,29.385c-19.849-3.34-41.913,2-50.563,0
		c1.831,15.044,0.591,27.139,3.107,44.297c23.914,0.561,43.51,1.381,49.658,1.525c0.854,0.02-1.875-2.526-1.16-3.251
		c0.531-0.539,1.978,1.335,2.009,1.057c2.632-23.743,2.053-39.38,2.071-41.92C107.814,31.123,106.106,30.553,110.489,29.385z"/>
	<path style="fill-rule:evenodd;clip-rule:evenodd;fill:#FFC978;" d="M160.334,48.096c-13.863,0.045-23.714,0.614-29.55,1.707
		c1.79,10.088,2.196,18.521,1.22,25.297c4.372-4.685,4.904-3.847,1.598,2.516c19.66-0.243,29.491-0.364,29.491-0.364
		c1.313-9.719,1.97-14.578,1.97-14.578c-2.978,2.292-3.197,1.679-0.657-1.839c1.447-7.725,1.271-12.015-0.525-12.871
		C161.779,48.68,160.597,48.724,160.334,48.096z"/>
</g>
</svg>
